<svg width="81" height="80" viewBox="0 0 81 80" fill="none" xmlns="http://www.w3.org/2000/svg">
<path d="M74.25 41.25H69.2738C68.9188 40.1791 68.4882 39.1348 67.985 38.125L71.4988 34.6125C71.615 34.4964 71.7072 34.3586 71.7701 34.2068C71.833 34.0551 71.8654 33.8924 71.8654 33.7281C71.8654 33.5639 71.833 33.4012 71.7701 33.2495C71.7072 33.0977 71.615 32.9599 71.4988 32.8438L64.7075 26.05C65.3812 26.1747 66.0648 26.2383 66.75 26.24C68.6079 26.2421 70.4373 25.7836 72.0745 24.9056C73.7118 24.0276 75.1059 22.7574 76.1322 21.2087C77.1584 19.66 77.7848 17.8811 77.9552 16.0311C78.1256 14.181 77.8348 12.3176 77.1087 10.6075C77.0289 10.419 76.904 10.253 76.7449 10.124C76.5859 9.99511 76.3976 9.90722 76.1967 9.86808C75.9957 9.82895 75.7882 9.83978 75.5924 9.89962C75.3966 9.95946 75.2185 10.0665 75.0738 10.2113L70.715 14.5713C70.5956 14.6866 70.5004 14.8245 70.4349 14.977C70.3694 15.1295 70.3349 15.2935 70.3334 15.4595C70.332 15.6255 70.3636 15.7901 70.4265 15.9437C70.4893 16.0973 70.5821 16.2369 70.6995 16.3543C70.8169 16.4716 70.9564 16.5644 71.1101 16.6273C71.2637 16.6901 71.4283 16.7218 71.5943 16.7203C71.7602 16.7189 71.9243 16.6844 72.0768 16.6189C72.2293 16.5534 72.3672 16.4582 72.4825 16.3388L75.3675 13.455C75.6955 15.2886 75.4298 17.1791 74.609 18.8512C73.7883 20.5234 72.4553 21.89 70.8041 22.7521C69.153 23.6143 67.2697 23.927 65.4285 23.6448C63.5873 23.3626 61.8842 22.5001 60.567 21.183C59.2499 19.8658 58.3875 18.1627 58.1052 16.3215C57.823 14.4803 58.1357 12.5971 58.9979 10.9459C59.8601 9.29469 61.2266 7.96173 62.8988 7.14097C64.5709 6.32022 66.4614 6.05451 68.295 6.38252L62.335 12.3438C62.1007 12.5782 61.969 12.8961 61.969 13.2275C61.969 13.559 62.1007 13.8769 62.335 14.1113L67.6387 19.415C67.8745 19.6427 68.1903 19.7687 68.518 19.7659C68.8457 19.763 69.1593 19.6315 69.391 19.3998C69.6228 19.168 69.7542 18.8545 69.7571 18.5268C69.7599 18.199 69.6339 17.8833 69.4062 17.6475L64.9863 13.2275L71.5388 6.67627C71.6835 6.53151 71.7906 6.35341 71.8504 6.15762C71.9102 5.96182 71.9211 5.75433 71.8819 5.55336C71.8428 5.3524 71.7549 5.16413 71.626 5.00509C71.497 4.84605 71.331 4.72112 71.1425 4.64127C69.1483 3.79374 66.9516 3.54095 64.8171 3.91336C62.6825 4.28576 60.7012 5.26746 59.1119 6.74017C57.5225 8.21289 56.3929 10.1138 55.8592 12.2138C55.3255 14.3138 55.4104 16.5234 56.1038 18.5763L54.0575 20.625C53.9512 20.4375 53.7976 20.2812 53.6121 20.1715C53.4265 20.0619 53.2155 20.0028 53 20H47.7225L47.2963 19.1388L49.2388 18.6175C49.3973 18.575 49.546 18.5017 49.6762 18.4017C49.8065 18.3018 49.9157 18.1771 49.9978 18.035C50.0799 17.8928 50.1331 17.7358 50.1545 17.573C50.1759 17.4102 50.165 17.2448 50.1225 17.0863L49.5312 14.875L51.7388 14.2838C51.9923 14.2157 52.2179 14.0696 52.3837 13.8661C52.5495 13.6626 52.6471 13.4121 52.6625 13.15L53 7.57502C53.0137 7.34305 52.9625 7.11187 52.8521 6.9074C52.7417 6.70294 52.5765 6.53329 52.375 6.41752L45.875 2.66752C45.7328 2.58525 45.5758 2.53182 45.4129 2.51029C45.25 2.48876 45.0845 2.49955 44.9258 2.54204C44.7671 2.58453 44.6183 2.65789 44.488 2.75792C44.3577 2.85795 44.2483 2.9827 44.1662 3.12502L34.5413 19.795L29.8812 15.125L30.7662 14.2413C30.8825 14.1252 30.9747 13.9873 31.0376 13.8356C31.1005 13.6838 31.1329 13.5212 31.1329 13.3569C31.1329 13.1926 31.1005 13.03 31.0376 12.8782C30.9747 12.7265 30.8825 12.5886 30.7662 12.4725L29.545 11.2525C29.9593 10.1296 30.6368 9.12231 31.5207 8.31519C32.4046 7.50808 33.4691 6.92463 34.625 6.61377C34.8697 6.54782 35.0886 6.40903 35.2527 6.2158C35.4167 6.02258 35.5181 5.78405 35.5435 5.53186C35.5689 5.27967 35.5169 5.02572 35.3946 4.80371C35.2724 4.5817 35.0855 4.40211 34.8587 4.28877L33.375 3.54752C31.7047 2.71254 29.8321 2.36755 27.974 2.55249C26.1158 2.73742 24.3479 3.44471 22.875 4.59252L21.9212 3.63877C21.6868 3.40443 21.369 3.27278 21.0375 3.27278C20.706 3.27278 20.3882 3.40443 20.1537 3.63877L17.0287 6.75627C16.801 6.99202 16.6751 7.30777 16.6779 7.63552C16.6808 7.96326 16.8122 8.27678 17.044 8.50854C17.2757 8.7403 17.5892 8.87176 17.917 8.87461C18.2447 8.87746 18.5605 8.75146 18.7962 8.52377L21.0325 6.29002L28.1025 13.36L20.1475 21.3163L13.0887 14.25L15.2737 12.0638C15.5014 11.828 15.6274 11.5123 15.6246 11.1845C15.6217 10.8568 15.4903 10.5433 15.2585 10.3115C15.0268 10.0797 14.7132 9.94827 14.3855 9.94542C14.0578 9.94258 13.742 10.0686 13.5062 10.2963L10.4375 13.3613C10.3213 13.4774 10.2291 13.6152 10.1662 13.767C10.1033 13.9187 10.0709 14.0814 10.0709 14.2456C10.0709 14.4099 10.1033 14.5726 10.1662 14.7243C10.2291 14.8761 10.3213 15.0139 10.4375 15.13L11.3212 16.0125L9.5525 17.7813L8.66875 16.8975C8.43434 16.6632 8.11645 16.5315 7.785 16.5315C7.45354 16.5315 7.13566 16.6632 6.90125 16.8975L3.36625 20.4325C3.13191 20.6669 3.00026 20.9848 3.00026 21.3163C3.00026 21.6477 3.13191 21.9656 3.36625 22.2L12.205 31.0388C12.4394 31.2731 12.7573 31.4047 13.0887 31.4047C13.4202 31.4047 13.7381 31.2731 13.9725 31.0388L17.5075 27.5C17.7418 27.2656 17.8735 26.9477 17.8735 26.6163C17.8735 26.2848 17.7418 25.9669 17.5075 25.7325L16.6237 24.8475L18.3912 23.08L19.2762 23.9638C19.5107 24.1981 19.8285 24.3297 20.16 24.3297C20.4915 24.3297 20.8093 24.1981 21.0437 23.9638L22.8112 22.195L27.7275 27.1113L22 32.84C21.8838 32.9561 21.7916 33.094 21.7287 33.2457C21.6658 33.3975 21.6334 33.5601 21.6334 33.7244C21.6334 33.8887 21.6658 34.0513 21.7287 34.2031C21.7916 34.3548 21.8838 34.4927 22 34.6088L25.5137 38.1213C25.0513 39.0554 24.6513 40.0192 24.3162 41.0063L9.875 32.6675C9.5879 32.5018 9.24671 32.4568 8.9265 32.5426C8.60628 32.6284 8.33326 32.8379 8.1675 33.125L3.1675 41.785C3.00174 42.0721 2.95682 42.4133 3.04262 42.7335C3.12842 43.0537 3.3379 43.3268 3.625 43.4925L16.0562 50.67L9.6175 54.3875C9.1905 54.6335 8.81618 54.9613 8.51594 55.3521C8.21571 55.7429 7.99544 56.189 7.86774 56.665C7.74004 57.141 7.70741 57.6375 7.77171 58.1261C7.83602 58.6147 7.99599 59.0858 8.2425 59.5125L13.2425 68.1738C13.4592 68.541 13.7369 68.8686 14.0637 69.1425L7.375 73C7.23268 73.0821 7.10793 73.1914 7.0079 73.3218C6.90787 73.4521 6.83451 73.6009 6.79202 73.7596C6.74953 73.9183 6.73874 74.0838 6.76027 74.2467C6.7818 74.4095 6.83523 74.5666 6.9175 74.7088L8.1675 76.8738C8.24897 77.0171 8.35799 77.1428 8.48828 77.2439C8.61856 77.3449 8.76754 77.4191 8.92663 77.4623C9.08572 77.5055 9.25179 77.5168 9.41526 77.4955C9.57874 77.4743 9.73639 77.4209 9.87916 77.3385C10.0219 77.256 10.147 77.1462 10.2471 77.0152C10.3472 76.8843 10.4205 76.7348 10.4626 76.5754C10.5048 76.4161 10.515 76.2499 10.4926 76.0866C10.4703 75.9233 10.4159 75.766 10.3325 75.6238L9.7075 74.5413L19.25 69.0313L23.765 66.425L30.84 73.5C30.9561 73.6162 31.094 73.7084 31.2457 73.7713C31.3974 73.8342 31.5601 73.8666 31.7244 73.8666C31.8886 73.8666 32.0513 73.8342 32.2031 73.7713C32.3548 73.7084 32.4927 73.6162 32.6087 73.5L36.1213 69.9863C37.1323 70.4892 38.1778 70.9194 39.25 71.2738V76.25C39.25 76.5815 39.3817 76.8995 39.6161 77.1339C39.8505 77.3683 40.1685 77.5 40.5 77.5H53C53.3315 77.5 53.6495 77.3683 53.8839 77.1339C54.1183 76.8995 54.25 76.5815 54.25 76.25V71.2738C55.3209 70.9188 56.3652 70.4882 57.375 69.985L60.8875 73.4988C61.0036 73.615 61.1415 73.7072 61.2932 73.7701C61.445 73.833 61.6076 73.8654 61.7719 73.8654C61.9361 73.8654 62.0988 73.833 62.2506 73.7701C62.4023 73.7072 62.5402 73.615 62.6562 73.4988L71.5 64.66C71.6162 64.5439 71.7084 64.4061 71.7713 64.2543C71.8342 64.1026 71.8666 63.9399 71.8666 63.7756C71.8666 63.6114 71.8342 63.4487 71.7713 63.297C71.7084 63.1452 71.6162 63.0074 71.5 62.8913L67.985 59.375C68.4882 58.3652 68.9188 57.3209 69.2738 56.25H74.25C74.5815 56.25 74.8995 56.1183 75.1339 55.8839C75.3683 55.6495 75.5 55.3315 75.5 55C75.5 54.6685 75.3683 54.3506 75.1339 54.1161C74.8995 53.8817 74.5815 53.75 74.25 53.75H68.3512C68.0801 53.75 67.8163 53.8381 67.5996 54.0011C67.3829 54.1642 67.2251 54.3932 67.15 54.6538C66.7163 56.1672 66.1151 57.6275 65.3575 59.0075C65.2266 59.2447 65.1762 59.518 65.2141 59.7863C65.252 60.0546 65.376 60.3033 65.5675 60.495L68.8475 63.7763L61.7763 70.8475L58.5 67.5675C58.3083 67.376 58.0596 67.252 57.7913 67.2141C57.523 67.1763 57.2497 67.2266 57.0125 67.3575C55.6324 68.1151 54.1722 68.7163 52.6588 69.15C52.3982 69.2251 52.1691 69.3829 52.0061 69.5996C51.8431 69.8163 51.755 70.0801 51.755 70.3513V75H41.75V70.3513C41.75 70.0801 41.6619 69.8163 41.4989 69.5996C41.3359 69.3829 41.1068 69.2251 40.8463 69.15C39.3328 68.7163 37.8726 68.1151 36.4925 67.3575C36.2553 67.2266 35.982 67.1763 35.7137 67.2141C35.4454 67.252 35.1967 67.376 35.005 67.5675L31.7237 70.8475L24.6525 63.7763L27.9325 60.5C28.124 60.3083 28.248 60.0596 28.2859 59.7913C28.3238 59.5231 28.2734 59.2497 28.1425 59.0125C27.3849 57.6325 26.7837 56.1722 26.35 54.6588C26.2758 54.3973 26.1184 54.1671 25.9016 54.0031C25.6849 53.8392 25.4206 53.7503 25.1487 53.75H20.5V43.75H25.1487C25.4199 43.7501 25.6837 43.6619 25.9004 43.4989C26.1171 43.3359 26.2749 43.1068 26.35 42.8463C26.7837 41.3329 27.3849 39.8726 28.1425 38.4925C28.2734 38.2553 28.3238 37.982 28.2859 37.7137C28.248 37.4454 28.124 37.1967 27.9325 37.005L24.6525 33.7238L31.7237 26.6525L35 29.9325C35.1917 30.124 35.4404 30.248 35.7087 30.2859C35.977 30.3238 36.2503 30.2735 36.4875 30.1425C37.8676 29.3849 39.3278 28.7837 40.8412 28.35C41.1027 28.2758 41.3329 28.1184 41.4969 27.9016C41.6609 27.6849 41.7497 27.4206 41.75 27.1488V22.5H51.75V27.1488C51.75 27.4199 51.8381 27.6837 52.0011 27.9004C52.1641 28.1171 52.3932 28.2749 52.6538 28.35C54.1672 28.7837 55.6274 29.3849 57.0075 30.1425C57.2447 30.2735 57.518 30.3238 57.7863 30.2859C58.0546 30.248 58.3033 30.124 58.495 29.9325L61.7763 26.6525L68.8475 33.7238L65.5675 37C65.376 37.1917 65.252 37.4404 65.2141 37.7087C65.1762 37.977 65.2266 38.2503 65.3575 38.4875C66.1151 39.8676 66.7163 41.3279 67.15 42.8413C67.2251 43.1018 67.3829 43.3309 67.5996 43.4939C67.8163 43.6569 68.0801 43.745 68.3512 43.745H73V49.995C73 50.3265 73.1317 50.6445 73.3661 50.8789C73.6005 51.1133 73.9185 51.245 74.25 51.245C74.5815 51.245 74.8995 51.1133 75.1339 50.8789C75.3683 50.6445 75.5 50.3265 75.5 49.995V42.5C75.5 42.1685 75.3683 41.8506 75.1339 41.6161C74.8995 41.3817 74.5815 41.25 74.25 41.25ZM13.0887 28.3875L6.0175 21.3163L7.785 19.5488L14.8562 26.625L13.0887 28.3875ZM14.8562 23.0838L11.32 19.5488L13.0887 17.78L16.625 21.3163L14.8562 23.0838ZM9.7075 35.4588L11.8725 36.7088L9.9975 39.9588C9.91412 40.101 9.85971 40.2583 9.83737 40.4216C9.81504 40.5849 9.82524 40.7511 9.86737 40.9104C9.90951 41.0698 9.98275 41.2193 10.0829 41.3502C10.183 41.4812 10.3081 41.591 10.4508 41.6735C10.5936 41.7559 10.7513 41.8093 10.9147 41.8305C11.0782 41.8518 11.2443 41.8405 11.4034 41.7973C11.5625 41.7541 11.7114 41.6799 11.8417 41.5788C11.972 41.4778 12.081 41.3521 12.1625 41.2088L14.0375 37.9588L16.2025 39.2088L14.3275 42.4588C14.2441 42.601 14.1897 42.7583 14.1674 42.9216C14.145 43.0849 14.1552 43.2511 14.1974 43.4105C14.2395 43.5698 14.3128 43.7193 14.4129 43.8502C14.513 43.9812 14.6381 44.091 14.7808 44.1735C14.9236 44.2559 15.0813 44.3093 15.2447 44.3305C15.4082 44.3518 15.5743 44.3405 15.7334 44.2973C15.8925 44.2541 16.0414 44.1799 16.1717 44.0789C16.302 43.9779 16.411 43.8521 16.4925 43.7088L18.3675 40.4588L19.7425 41.2513H19.25C18.9185 41.2513 18.6005 41.383 18.3661 41.6174C18.1317 41.8518 18 42.1697 18 42.5013V48.9063L5.9575 41.9525L9.7075 35.4588ZM18.6462 58.2575C18.8855 58.3211 19.1004 58.4544 19.2639 58.6403C19.4273 58.8262 19.5318 59.0565 19.5642 59.3019C19.5966 59.5473 19.5554 59.7968 19.4459 60.0188C19.3363 60.2408 19.1633 60.4252 18.9487 60.5488C18.6605 60.7127 18.3196 60.7576 17.9987 60.6738C17.7047 60.5963 17.449 60.4143 17.2795 60.1619C17.11 59.9095 17.0383 59.6039 17.0778 59.3024C17.1174 59.001 17.2654 58.7242 17.4943 58.5241C17.7232 58.3239 18.0172 58.214 18.3212 58.215C18.4309 58.2151 18.5401 58.2302 18.6462 58.2575ZM24.2262 56.25C24.5812 57.3209 25.0118 58.3652 25.515 59.375L22 62.8913C21.7787 63.1151 21.6506 63.4145 21.6415 63.7292C21.6325 64.0438 21.7432 64.3501 21.9512 64.5863L17.1162 67.375C16.8294 67.5405 16.4887 67.5855 16.1687 67.5C16.0101 67.4582 15.8614 67.3851 15.7313 67.2851C15.6012 67.1851 15.4924 67.0601 15.4112 66.9175L10.4112 58.255C10.2462 57.9683 10.2015 57.6278 10.287 57.3082C10.3726 56.9886 10.5813 56.716 10.8675 56.55L18 52.435V55C18.0057 55.2654 18.0979 55.5217 18.2625 55.73C17.3593 55.7435 16.4914 56.0831 15.819 56.6864C15.1467 57.2896 14.7151 58.1156 14.6041 59.0121C14.4931 59.9086 14.71 60.8149 15.2149 61.5639C15.7198 62.313 16.4786 62.8541 17.3512 63.0875C17.6703 63.1715 17.9989 63.2135 18.3287 63.2125C19.1505 63.2149 19.9502 62.9462 20.6038 62.4482C21.2575 61.9501 21.7287 61.2504 21.9445 60.4575C22.1603 59.6646 22.1087 58.8226 21.7976 58.062C21.4865 57.3013 20.9334 56.6645 20.2237 56.25H24.2262ZM31.2663 5.37502C29.7168 6.34748 28.4631 7.72564 27.6412 9.36002L24.6625 6.37502C25.6083 5.7035 26.6985 5.26321 27.8454 5.08953C28.9923 4.91586 30.164 5.01364 31.2663 5.37502ZM36.125 27.515L32.6087 24C32.4927 23.8838 32.3548 23.7916 32.2031 23.7287C32.0513 23.6658 31.8886 23.6334 31.7244 23.6334C31.5601 23.6334 31.3974 23.6658 31.2457 23.7287C31.094 23.7916 30.9561 23.8838 30.84 24L29.5 25.3475L24.5837 20.4313L28.1187 16.8963L37.9388 26.715C37.3225 26.9545 36.7174 27.2214 36.125 27.515ZM40.5 20C40.1685 20 39.8505 20.1317 39.6161 20.3661C39.3817 20.6006 39.25 20.9185 39.25 21.25V24.5L36.375 21.625L45.7125 5.45752L50.4625 8.19627L50.2275 12.1063L47.6825 12.7875C47.5239 12.83 47.3753 12.9033 47.245 13.0033C47.1148 13.1032 47.0055 13.2279 46.9234 13.3701C46.8414 13.5123 46.7881 13.6692 46.7667 13.832C46.7453 13.9948 46.7562 14.1602 46.7988 14.3188L47.3913 16.5263L45.1825 17.1175C45.0035 17.1643 44.837 17.2502 44.6953 17.3691C44.5535 17.488 44.4398 17.6369 44.3626 17.8051C44.2853 17.9732 44.2464 18.1564 44.2485 18.3414C44.2507 18.5265 44.2939 18.7087 44.375 18.875L44.9287 20H40.5ZM57.375 27.515C56.3652 27.0119 55.3209 26.5812 54.25 26.2263V23.965L57.2363 20.9775C58.0778 22.33 59.2008 23.4853 60.5288 24.365L57.375 27.515Z" fill="#001645"/>
<path d="M46.75 38.75C48.6314 38.752 50.4739 39.2859 52.065 40.29C52.2038 40.3839 52.36 40.4489 52.5244 40.4812C52.6888 40.5135 52.858 40.5124 53.022 40.478C53.186 40.4436 53.3414 40.3766 53.4789 40.281C53.6165 40.1853 53.7334 40.063 53.8228 39.9213C53.9121 39.7795 53.9721 39.6213 53.9991 39.4559C54.026 39.2905 54.0195 39.1214 53.9798 38.9587C53.9401 38.7959 53.8682 38.6427 53.7681 38.5083C53.6681 38.3739 53.542 38.261 53.3975 38.1763C50.7906 36.5349 47.6703 35.9115 44.6328 36.4255C41.5953 36.9394 38.8537 38.5544 36.9318 40.9621C35.01 43.3697 34.0426 46.4011 34.2147 49.4769C34.3867 52.5528 35.686 55.4574 37.8643 57.6357C40.0427 59.814 42.9473 61.1134 46.0231 61.2854C49.0989 61.4574 52.1303 60.49 54.5379 58.5682C56.9456 56.6463 58.5607 53.9047 59.0746 50.8672C59.5885 47.8298 58.9652 44.7094 57.3238 42.1025C57.239 41.958 57.1261 41.8319 56.9917 41.7319C56.8573 41.6319 56.7041 41.5599 56.5414 41.5202C56.3786 41.4805 56.2095 41.474 56.0441 41.501C55.8788 41.5279 55.7205 41.5879 55.5788 41.6772C55.437 41.7666 55.3147 41.8835 55.2191 42.0211C55.1234 42.1586 55.0564 42.314 55.022 42.478C54.9876 42.642 54.9865 42.8112 55.0188 42.9756C55.0511 43.14 55.1161 43.2962 55.21 43.435C56.3871 45.3124 56.9068 47.5277 56.6876 49.7327C56.4683 51.9377 55.5224 54.0073 53.9987 55.616C52.4749 57.2248 50.4597 58.2816 48.2699 58.6202C46.0801 58.9587 43.8398 58.5599 41.9013 57.4865C39.9629 56.413 38.4361 54.7257 37.5612 52.6899C36.6862 50.6541 36.5127 48.3852 37.0678 46.24C37.623 44.0948 38.8753 42.195 40.628 40.8392C42.3806 39.4833 44.5341 38.7484 46.75 38.75Z" fill="#001645"/>
</svg>
