<svg width="70" height="70" viewBox="0 0 70 70" fill="none" xmlns="http://www.w3.org/2000/svg">
<g clip-path="url(#clip0_146_367)">
<path d="M33.3793 -1.87589e-05C33.1991 -0.00591771 33.0202 0.032371 32.8577 0.111598C31.175 0.960519 29.7384 2.23805 28.6884 3.8192C27.6384 5.40034 27.011 7.23093 26.8676 9.13185C25.0502 9.90903 23.9011 10.062 23.078 9.99998C22.263 9.94624 21.7251 9.68167 21.0202 9.40469C20.3152 9.12772 19.3291 8.85901 18.2492 9.21867C17.1735 9.57832 16.0896 10.401 14.5818 11.9471C13.0741 13.4973 12.2755 14.6135 11.9372 15.709C11.599 16.8086 11.8802 17.7966 12.1654 18.5035C12.4507 19.2104 12.7155 19.7437 12.7889 20.5705C12.8582 21.3972 12.74 22.563 12.0106 24.3902C11.785 24.964 11.5195 25.5207 11.216 26.0562C10.6863 26.1926 10.1647 26.2629 9.62679 26.2464H8.53064V25.1591C8.53118 25.0153 8.50378 24.8727 8.45001 24.7396C8.39623 24.6065 8.31714 24.4854 8.21725 24.3833C8.11735 24.2812 7.99861 24.2 7.8678 24.1445C7.737 24.0889 7.59668 24.0601 7.45487 24.0595H2.07603C1.78964 24.0595 1.51497 24.1749 1.31246 24.3804C1.10995 24.5858 0.996185 24.8645 0.996185 25.155C0.996185 25.4455 1.10995 25.7242 1.31246 25.9296C1.51497 26.1351 1.78964 26.2505 2.07603 26.2505H6.37503V50.3059H2.07603C1.78964 50.3059 1.51497 50.4213 1.31246 50.6268C1.10995 50.8322 0.996185 51.1108 0.996185 51.4014C0.996185 51.6919 1.10995 51.9706 1.31246 52.176C1.51497 52.3815 1.78964 52.4969 2.07603 52.4969H7.45487C7.73986 52.4958 8.01286 52.3805 8.21437 52.176C8.41589 51.9716 8.52957 51.6946 8.53064 51.4055V50.3514C10.018 50.4754 11.0937 50.8557 12.198 51.3766C11.9413 51.976 11.6968 52.6622 11.7865 53.5552C11.9169 54.8574 12.7318 56.143 14.5818 58.0446C16.0896 59.5907 17.1735 60.4175 18.2492 60.7772C19.3291 61.1409 20.3152 60.8722 21.0202 60.5953C21.7251 60.3142 22.2589 60.0578 23.0821 59.9958C23.9011 59.938 25.0543 60.0785 26.8472 60.864C31.0566 62.7077 30.3598 64.1711 31.5456 65.9363C31.6103 66.0279 31.6887 66.1088 31.7779 66.1761C32.8047 68.4291 35.0581 70 37.6579 70C40.2658 70 42.507 68.4291 43.5339 66.1678C43.6213 66.1015 43.6983 66.0221 43.7621 65.9322C45.0049 64.0636 44.2103 62.7366 48.4482 60.8598C50.2411 60.0703 51.3943 59.938 52.2175 59.9958C53.0365 60.0537 53.5744 60.3142 54.2794 60.5953C54.9843 60.8722 55.9704 61.1409 57.0503 60.7772C58.126 60.4175 59.21 59.5907 60.7177 58.0446C62.2254 56.4944 63.0241 55.3865 63.3663 54.291C63.7046 53.1914 63.4193 52.2034 63.13 51.4965C62.8448 50.7896 62.5799 50.2563 62.5106 49.4295C62.4413 48.6027 62.5595 47.4369 63.293 45.6097C64.0265 43.7825 64.7314 42.8565 65.3508 42.315C65.9702 41.7776 66.5325 41.5791 67.2253 41.2815C67.9098 40.9839 68.79 40.4961 69.3075 39.4791C69.821 38.4704 70.0166 37.131 70.0003 34.9979C70.0166 32.8648 69.821 31.5254 69.3075 30.5209C68.79 29.508 67.9098 29.0078 67.2212 28.7102C66.5325 28.4125 65.9702 28.2265 65.3508 27.685C64.7314 27.1434 64.0224 26.2174 63.293 24.3902C62.5595 22.563 62.4373 21.3972 62.5106 20.5705C62.5799 19.7437 62.8448 19.2104 63.13 18.5035C63.4152 17.8007 63.7005 16.8086 63.3623 15.709C63.0241 14.6135 62.2213 13.4973 60.7177 11.9471C59.21 10.401 58.126 9.57832 57.0503 9.21867C55.9704 8.85901 54.9843 9.12772 54.2794 9.40469C53.5744 9.68167 53.0365 9.94211 52.2175 10.0041C51.3943 10.062 50.2534 9.9049 48.4278 9.13185C48.2826 7.23302 47.6549 5.40476 46.6058 3.82534C45.5567 2.24593 44.1221 0.969275 42.4418 0.119865C42.277 0.0366916 42.0939 -0.00233734 41.91 0.00648685C41.7261 0.015311 41.5474 0.0716953 41.391 0.170282C41.2347 0.26887 41.1057 0.406385 41.0165 0.569763C40.9272 0.733142 40.8806 0.916956 40.8811 1.10374V9.15252L37.6498 10.7937L34.4184 9.15252V1.09134C34.4175 0.808536 34.3089 0.537023 34.1152 0.333611C33.9216 0.1302 33.6578 0.0106519 33.3793 -1.87589e-05ZM43.0368 3.0839C45.0049 4.62173 46.2763 7.32119 46.2804 9.9049C46.2804 12.9433 44.7523 15.6097 42.4418 17.1806C42.2949 17.281 42.1746 17.4164 42.0915 17.575C42.0084 17.7336 41.9649 17.9105 41.9651 18.0901V26.2505H40.6203C39.7483 23.1459 36.8103 20.7854 33.3345 20.7854V18.0984C33.3352 17.918 33.2921 17.7403 33.209 17.5809C33.1258 17.4216 33.0051 17.2855 32.8577 17.1848C31.6769 16.3867 30.7089 15.3048 30.0399 14.0354C29.3709 12.766 29.0216 11.3485 29.0232 9.90903C29.0232 7.32119 30.262 4.65893 32.2587 3.08803V9.82635C32.2587 10.2397 32.4869 10.6201 32.8495 10.8061L37.1648 12.9971C37.3142 13.0725 37.4788 13.1117 37.6457 13.1117C37.8125 13.1117 37.9771 13.0725 38.1265 12.9971L42.4459 10.8144C42.6247 10.7222 42.7747 10.5814 42.8791 10.4076C42.9835 10.2338 43.0381 10.034 43.0368 9.83049V3.0839ZM19.4106 11.2112C19.651 11.2112 19.867 11.2939 20.2419 11.4386C20.8368 11.6742 21.7088 12.0959 22.9313 12.1827C24.003 12.2571 25.311 12.0752 26.9776 11.4427C27.3797 14.3175 28.8891 16.9131 31.1748 18.6606V20.7813H24.7079C21.1628 20.7813 18.4 22.3109 16.0203 23.7123C15.3805 24.0843 14.7693 24.4481 14.1784 24.7747C14.863 22.9392 15.0423 21.5295 14.9445 20.3844C14.8345 19.1525 14.4025 18.2679 14.1621 17.6726C13.9176 17.0773 13.8443 16.8789 14.0032 16.3662C14.1662 15.8495 14.7204 14.9276 16.1222 13.4932C17.5198 12.0545 18.4204 11.4717 18.9338 11.3022C19.0882 11.2456 19.2465 11.2149 19.4106 11.2112ZM56.3698 11.3022C56.8832 11.4717 57.7838 12.0545 59.1814 13.4932C60.5832 14.9276 61.1415 15.8495 61.3004 16.3662C61.4634 16.8789 61.3819 17.0773 61.1415 17.6726C60.897 18.2679 60.4691 19.1525 60.3632 20.3844C60.2572 21.6205 60.4732 23.1624 61.2922 25.2129C62.1154 27.2633 63.02 28.5283 63.9409 29.3385C64.87 30.1488 65.7909 30.4754 66.3777 30.7276C66.9685 30.9839 67.1641 31.0583 67.3964 31.5171C67.6327 31.9801 67.8609 33.0095 67.8609 34.9979C67.8609 36.9863 67.6327 38.0116 67.3964 38.4704C67.1641 38.9293 66.9685 39.0161 66.3777 39.2724C65.7909 39.5246 64.87 39.8512 63.945 40.6614C63.02 41.4717 62.1113 42.7325 61.2963 44.7871C60.4813 46.8416 60.2572 48.3795 60.3591 49.6114C60.4691 50.8474 60.901 51.728 61.1415 52.3274C61.386 52.9227 61.4593 53.117 61.3045 53.6337C61.1415 54.1505 60.5832 55.0723 59.1855 56.5068C57.7878 57.9413 56.8832 58.5242 56.3738 58.6978C55.8604 58.8673 55.6567 58.7929 55.0617 58.5614C54.4668 58.3257 53.5907 57.8999 52.3723 57.8173C51.1498 57.7304 49.6258 57.9785 47.6088 58.8425C45.987 59.537 44.8868 60.2687 44.1166 61.0376V54.0967C45.0783 53.5304 45.8117 52.5961 46.1174 51.4923C49.2881 49.817 51.907 47.2379 53.6518 44.0723C55.3966 40.9067 56.1912 37.2928 55.9378 33.675C55.7209 30.2769 54.5777 27.0068 52.6357 24.2293C50.6937 21.4519 48.0293 19.2763 44.9397 17.9454C46.7856 16.2486 47.983 13.9462 48.3219 11.4427C49.9926 12.0752 51.2965 12.2571 52.3682 12.1827C53.5907 12.0959 54.4668 11.6742 55.0577 11.4386C55.3191 11.3144 55.6009 11.2401 55.8889 11.2195C56.0547 11.2086 56.2166 11.2369 56.3698 11.3022ZM44.1207 19.9628C46.8336 21.1621 49.17 23.094 50.8751 25.5479C52.5802 28.0017 53.5886 30.8833 53.7904 33.8786C53.9921 36.8739 53.3795 39.8679 52.0193 42.5342C50.6591 45.2006 48.6035 47.4369 46.0766 48.9996C45.9051 48.4497 45.6282 47.9398 45.2616 47.4989C45.843 47.1454 46.334 46.6577 46.6945 46.0754C47.0551 45.493 47.2751 44.8326 47.3366 44.1478C47.3982 43.463 47.2995 42.7731 47.0487 42.1343C46.7979 41.4954 46.402 40.9256 45.8932 40.4712C46.3533 40.0612 46.7218 39.5563 46.9742 38.9903C47.2267 38.4243 47.3573 37.8102 47.3573 37.1889C47.3573 36.5676 47.2267 35.9535 46.9742 35.3875C46.7218 34.8215 46.3533 34.3166 45.8932 33.9066C46.4842 33.3823 46.9227 32.7041 47.1613 31.9454C47.3999 31.1866 47.4296 30.3761 47.2471 29.6015C47.0646 28.8269 46.6769 28.1176 46.1259 27.5503C45.5748 26.983 44.8815 26.5793 44.1207 26.3828V19.9628ZM24.7039 22.9681H33.3345C36.3417 22.9681 38.7337 25.432 38.7337 28.1604V34.4481C38.7375 34.8091 38.6702 35.1672 38.5358 35.5015C38.4014 35.8358 38.2025 36.1395 37.9509 36.3948C37.6993 36.6501 37.3999 36.8518 37.0704 36.9882C36.7409 37.1245 36.3879 37.1928 36.032 37.1889C35.6764 37.1928 35.3235 37.1245 34.9943 36.9881C34.665 36.8517 34.3659 36.6499 34.1146 36.3945C33.8633 36.1392 33.6648 35.8355 33.5308 35.5012C33.3969 35.167 33.3301 34.8089 33.3345 34.4481V30.6242C33.3345 30.3337 33.2207 30.055 33.0182 29.8496C32.8157 29.6441 32.541 29.5287 32.2546 29.5287C31.9682 29.5287 31.6936 29.6441 31.491 29.8496C31.2885 30.055 31.1748 30.3337 31.1748 30.6242V30.9673C30.6432 31.7822 29.939 32.4664 29.1134 32.9698C28.2879 33.4733 27.3619 33.7833 26.4031 33.8772C25.4444 33.9711 24.477 33.8465 23.5718 33.5126C22.6666 33.1786 21.8463 32.6438 21.1709 31.9471C21.0743 31.8339 20.9558 31.742 20.8228 31.6772C20.6898 31.6123 20.5452 31.5757 20.3977 31.5698C20.2502 31.5638 20.1031 31.5886 19.9655 31.6426C19.8278 31.6965 19.7025 31.7786 19.5974 31.8836C19.4922 31.9886 19.4093 32.1143 19.3539 32.2531C19.2985 32.3919 19.2717 32.5407 19.2752 32.6904C19.2787 32.84 19.3124 32.9874 19.3743 33.1233C19.4361 33.2593 19.5247 33.3809 19.6347 33.4808C21.1338 35.0225 23.1424 35.9466 25.2733 36.0749C27.4043 36.2031 29.5065 35.5264 31.1748 34.1753C31.1992 40.8474 31.1829 47.8379 31.1829 53.5882C22.8457 53.4973 18.9827 52.224 16.2444 50.9549C13.6691 49.7602 11.8517 48.4084 8.52657 48.1686V28.4332H9.57789C12.4181 28.5159 14.7448 26.9863 17.0879 25.6097C19.4269 24.2373 21.7699 22.9681 24.7039 22.9681ZM40.8934 28.4332H43.0531C44.2633 28.4332 45.2087 29.3923 45.2087 30.6242C45.2087 31.8561 44.2633 32.8152 43.049 32.8152H40.8934V28.4332ZM40.8608 34.9979H43.049C44.2633 34.9979 45.2087 35.957 45.2087 37.1889C45.2087 38.4208 44.2633 39.3799 43.049 39.3799H39.8094C39.2604 39.382 38.7319 39.1687 38.3343 38.7846C39.7035 38.0322 40.6815 36.6349 40.8608 34.9979ZM33.3467 38.5448C34.1209 39.0698 35.0418 39.3758 36.0565 39.3758C36.3091 39.7891 36.6107 40.1612 36.9611 40.4712C36.5018 40.8813 36.1338 41.386 35.8818 41.9516C35.6298 42.5172 35.4994 43.1308 35.4994 43.7515C35.4994 44.3723 35.6298 44.9859 35.8818 45.5515C36.1338 46.1171 36.5018 46.6217 36.9611 47.0318C36.0646 47.8338 35.4941 49.0037 35.4941 50.3059C35.4941 52.7118 37.4379 54.6879 39.8135 54.6879H41.9569L41.9651 63.4353C41.9651 65.8743 40.0702 67.8131 37.662 67.8131C37.0939 67.8181 36.5306 67.7082 36.0048 67.49C35.4791 67.2717 35.0014 66.9494 34.5997 66.5419C34.198 66.1344 33.8803 65.6498 33.6652 65.1165C33.4501 64.5831 33.3418 64.0116 33.3467 63.4353V38.5448ZM39.8094 41.5626H43.049C44.2633 41.5626 45.2087 42.5217 45.2087 43.7536C45.2087 44.9814 44.2633 45.9446 43.049 45.9446H39.8094C39.5248 45.9485 39.2422 45.8945 38.9785 45.7857C38.7147 45.677 38.4751 45.5158 38.2738 45.3115C38.0725 45.1073 37.9135 44.8642 37.8063 44.5966C37.6992 44.329 37.6459 44.0424 37.6498 43.7536C37.6498 42.5217 38.5951 41.5626 39.8094 41.5626ZM39.8094 48.1273H41.9691C43.1794 48.1273 44.1247 49.0781 44.1247 50.3059C44.1247 51.5378 43.1794 52.4969 41.9651 52.4969H39.8094C39.5246 52.5013 39.2418 52.4477 38.9778 52.3392C38.7138 52.2307 38.4739 52.0694 38.2725 51.8651C38.0711 51.6607 37.9122 51.4174 37.8052 51.1496C37.6982 50.8818 37.6454 50.5948 37.6498 50.3059C37.6459 50.0177 37.6992 49.7316 37.8065 49.4647C37.9138 49.1978 38.073 48.9555 38.2744 48.7522C38.4759 48.549 38.7157 48.3889 38.9794 48.2815C39.2431 48.1742 39.5254 48.1217 39.8094 48.1273ZM14.1621 52.3646C14.5329 52.5547 14.9282 52.749 15.3561 52.9475C18.3104 54.3158 22.6134 55.68 31.187 55.7751V61.0583C30.4209 60.2894 29.3207 59.537 27.6948 58.8425C25.6778 57.9743 24.1537 57.7263 22.9354 57.8173C21.7129 57.8999 20.8368 58.3257 20.2459 58.5614C19.6469 58.7929 19.4391 58.8673 18.9297 58.6978C18.4163 58.5242 17.5198 57.9454 16.1181 56.5068C14.4066 54.7457 13.9869 53.8115 13.9421 53.3361C13.9378 52.9991 14.0133 52.6659 14.1621 52.3646ZM37.6538 62.3439C37.3685 62.3439 37.0949 62.4589 36.8932 62.6636C36.6914 62.8682 36.5781 63.1458 36.5781 63.4353C36.5781 63.7247 36.6914 64.0023 36.8932 64.207C37.0949 64.4117 37.3685 64.5266 37.6538 64.5266C37.9391 64.5266 38.2128 64.4117 38.4145 64.207C38.6163 64.0023 38.7296 63.7247 38.7296 63.4353C38.7296 63.1458 38.6163 62.8682 38.4145 62.6636C38.2128 62.4589 37.9391 62.3439 37.6538 62.3439Z" fill="#001645"/>
</g>
<defs>
<clipPath id="clip0_146_367">
<rect width="69" height="70" fill="white" transform="translate(1)"/>
</clipPath>
</defs>
</svg>
