<svg width="71" height="70" viewBox="0 0 71 70" fill="none" xmlns="http://www.w3.org/2000/svg">
<g clip-path="url(#clip0_157_335)">
<path d="M31.4252 28.3974C31.6885 28.3981 31.954 28.3028 32.1504 28.1059L33.2196 27.0341C33.3148 26.9387 33.3904 26.8255 33.442 26.7008C33.4935 26.5762 33.52 26.4426 33.52 26.3076C33.52 26.1727 33.4935 26.0391 33.442 25.9145C33.3904 25.7898 33.3148 25.6766 33.2196 25.5812C33.1244 25.4858 33.0114 25.4101 32.887 25.3585C32.7626 25.3068 32.6293 25.2802 32.4946 25.2802C32.36 25.2802 32.2267 25.3068 32.1023 25.3585C31.9779 25.4101 31.8649 25.4858 31.7697 25.5812L30.7 26.653C30.5079 26.8457 30.3999 27.107 30.3999 27.3794C30.3999 27.6518 30.5079 27.9131 30.7 28.1059C30.8917 28.2979 31.1576 28.3968 31.4252 28.3974ZM43.9686 39.9471L45.0377 38.8753C45.1329 38.7799 45.2085 38.6667 45.26 38.5421C45.3116 38.4174 45.3381 38.2839 45.3381 38.1489C45.3381 38.014 45.3116 37.8805 45.26 37.7558C45.2085 37.6312 45.1329 37.5179 45.0377 37.4226C44.9425 37.3272 44.8295 37.2515 44.7051 37.1998C44.5807 37.1482 44.4474 37.1216 44.3128 37.1216C44.1781 37.1216 44.0448 37.1482 43.9204 37.1998C43.796 37.2515 43.683 37.3272 43.5878 37.4226L42.5187 38.4944C42.4234 38.5897 42.3479 38.703 42.2964 38.8276C42.2448 38.9522 42.2183 39.0858 42.2183 39.2207C42.2183 39.3556 42.2448 39.4892 42.2964 39.6139C42.3479 39.7385 42.4234 39.8517 42.5187 39.9471C42.9138 40.343 43.5735 40.343 43.9686 39.9471ZM36.0192 30.7392C35.4547 30.6994 34.9649 31.1292 34.9271 31.6953C34.856 32.7607 35.2608 33.8191 36.0385 34.5982C36.7572 35.3185 37.7142 35.7198 38.6953 35.7198C39.3352 35.7198 39.9381 35.3313 39.8905 34.6181C39.8816 34.4834 39.8463 34.3519 39.7866 34.231C39.7269 34.11 39.6439 34.0021 39.5426 33.9133C39.4412 33.8245 39.3233 33.7565 39.1957 33.7134C39.0681 33.6703 38.9333 33.6528 38.799 33.6619C38.3258 33.6929 37.8478 33.5056 37.4889 33.1455C37.1295 32.7859 36.942 32.3075 36.9735 31.8328C36.9917 31.561 36.9014 31.2931 36.7224 31.088C36.5434 30.8829 36.2905 30.7574 36.0192 30.7392ZM45.1921 25.4255C47.0052 27.2422 50.0382 27.2401 51.8492 25.4255C53.6842 23.587 53.6842 20.5946 51.8492 18.756C50.0345 16.9378 47.0058 16.9393 45.1922 18.756C43.3572 20.5946 43.357 23.587 45.1921 25.4255ZM46.6427 20.2093C47.667 19.1824 49.3749 19.1835 50.3993 20.2093C51.4348 21.247 51.4348 22.9352 50.3993 23.9727C49.3754 24.9985 47.6649 24.997 46.6427 23.9727C45.6072 22.9352 45.6072 21.247 46.6427 20.2093ZM48.837 0.0686035H48.8045C47.0784 0.0686035 45.6599 1.47545 45.6424 3.20532C45.6247 4.95244 47.0293 6.38819 48.773 6.40641C52.8693 6.44806 56.7209 8.06943 59.6176 10.9719C62.5155 13.8753 64.1337 17.7345 64.1747 21.8393C64.1918 23.5548 65.6264 24.9765 67.337 24.9765H67.3695C69.1131 24.9589 70.5178 23.5227 70.5001 21.7756C70.4419 16.0018 68.1658 10.5737 64.0909 6.49038C60.016 2.40819 54.599 0.127371 48.8371 0.0686035H48.837ZM67.3488 22.9218H67.3369C66.7345 22.925 66.2319 22.4182 66.2255 21.819C66.179 17.1726 64.3478 12.8046 61.0682 9.51901C57.7896 6.23353 53.4305 4.3986 48.7938 4.35162C48.1808 4.34518 47.6873 3.84066 47.6938 3.22627C47.6995 2.61833 48.1983 2.1234 48.8168 2.1234C54.0383 2.17641 58.9479 4.24354 62.641 7.94367C66.334 11.6438 68.397 16.5637 68.4493 21.7964C68.4552 22.4108 67.9618 22.9153 67.3488 22.9218Z" fill="#001645"/>
<path d="M53.2489 17.3534C54.8197 18.9271 55.6972 21.0193 55.7194 23.2448C55.7367 24.9593 57.1728 26.3822 58.8818 26.3822H58.9137C60.6575 26.3644 62.0625 24.9284 62.0449 23.1812C62.0059 19.2873 60.4706 15.626 57.7218 12.8719C54.9735 10.1182 51.32 8.57987 47.4337 8.54083L47.4009 8.54028C45.675 8.54028 44.2564 9.94754 44.2389 11.677C44.2212 13.4241 45.6252 14.8603 47.3695 14.878C49.5902 14.9004 51.6783 15.7797 53.2489 17.3534ZM46.2897 11.698C46.2961 11.09 46.7943 10.5951 47.4128 10.5951C50.7591 10.6293 53.9048 11.9537 56.2718 14.3252C58.6381 16.6963 59.9605 19.8491 59.9941 23.2021C60 23.8163 59.5066 24.321 58.8935 24.3274H58.8818C58.2792 24.3306 57.7762 23.8249 57.7702 23.2247C57.7426 20.4581 56.6519 17.8569 54.6995 15.9006C52.7472 13.9443 50.1509 12.8515 47.3904 12.8232C46.7772 12.8169 46.2832 12.3122 46.2897 11.698ZM29.9042 18.0651C27.8401 18.064 25.7739 18.8249 24.2481 20.3537L20.5725 24.0363C20.4773 24.1317 20.4018 24.2449 20.3502 24.3696C20.2987 24.4942 20.2722 24.6278 20.2722 24.7627C20.2722 24.8976 20.2987 25.0312 20.3502 25.1558C20.4018 25.2804 20.4773 25.3937 20.5725 25.4891C20.6677 25.5845 20.7808 25.6602 20.9052 25.7119C21.0296 25.7635 21.1629 25.7901 21.2976 25.7901C21.4322 25.7901 21.5656 25.7635 21.69 25.7119C21.8144 25.6602 21.9274 25.5845 22.0226 25.4891L25.698 21.8066C27.9917 19.5088 31.8193 19.511 34.1103 21.8066L48.805 36.5299C51.1245 38.8538 51.1245 42.6348 48.805 44.9588L33.7553 60.038C33.66 60.1334 33.5844 60.2467 33.5329 60.3714C33.4813 60.4961 33.4548 60.6297 33.4548 60.7647C33.4548 60.8996 33.4813 61.0333 33.5329 61.158C33.5844 61.2827 33.66 61.396 33.7553 61.4914C34.1408 61.8777 34.8042 61.8927 35.2053 61.4914C35.2053 61.4914 50.2503 46.417 50.2551 46.4117C53.3371 43.324 53.3333 38.161 50.2551 35.077C50.2551 35.077 35.5668 20.3596 35.5605 20.3537C34.041 18.8308 31.9737 18.0656 29.9042 18.0651ZM17.6722 26.9425L2.83913 41.8044C-0.279708 44.9293 -0.279708 50.014 2.83913 53.1389L17.5337 67.8622C20.6014 70.9359 25.7647 70.9504 28.8468 67.8622L32.3048 64.3975C32.4001 64.3022 32.4756 64.1889 32.5272 64.0643C32.5787 63.9396 32.6053 63.806 32.6053 63.6711C32.6053 63.5362 32.5787 63.4026 32.5272 63.2779C32.4756 63.1533 32.4001 63.04 32.3048 62.9447C32.2096 62.8492 32.0966 62.7735 31.9722 62.7219C31.8478 62.6702 31.7145 62.6436 31.5798 62.6436C31.4451 62.6436 31.3118 62.6702 31.1874 62.7219C31.063 62.7735 30.95 62.8492 30.8548 62.9447L27.3963 66.4095C25.0774 68.7334 21.3032 68.7334 18.9843 66.4095L4.28985 51.6863C1.97041 49.3623 1.97041 45.5812 4.28985 43.2573L19.1225 28.3952C19.3146 28.2025 19.4225 27.9412 19.4225 27.6688C19.4225 27.3965 19.3146 27.1352 19.1225 26.9425C19.0273 26.847 18.9142 26.7713 18.7897 26.7197C18.6653 26.668 18.5319 26.6414 18.3972 26.6414C18.2625 26.6414 18.1291 26.668 18.0047 26.7197C17.8802 26.7713 17.7672 26.847 17.6719 26.9425H17.6722Z" fill="#001645"/>
<path d="M20.5325 39.9637C22.5546 41.9892 25.9431 41.9859 27.9612 39.9637C29.9859 37.9352 29.9837 34.5469 27.9612 32.5199C25.9356 30.4903 22.5567 30.4925 20.5325 32.5199C18.5096 34.5474 18.5127 37.9395 20.5325 39.9637ZM21.9831 33.9733C23.2167 32.7368 25.2787 32.7383 26.5112 33.9733C27.7429 35.2073 27.7396 37.2792 26.5112 38.5105C25.2761 39.7481 23.2172 39.7476 21.9825 38.5105C20.7488 37.2739 20.7499 35.2084 21.9831 33.9733ZM34.3982 51.6558C35.7494 51.6558 37.1006 51.1485 38.1126 50.1344C40.1607 48.0824 40.1607 44.7433 38.1126 42.6913C36.0886 40.6632 32.7059 40.6652 30.6839 42.6913C28.6358 44.7433 28.6358 48.0824 30.6839 50.1344C31.6965 51.1491 33.0477 51.6558 34.3982 51.6558ZM32.134 44.144C33.3682 42.9074 35.4303 42.9095 36.6629 44.144C37.911 45.3951 37.911 47.4306 36.6629 48.6817C35.4282 49.9183 33.3671 49.9173 32.134 48.6817C30.8859 47.4306 30.8859 45.3951 32.134 44.144ZM14.9051 40.3598C13.5535 40.3603 12.2022 40.867 11.1913 41.88C9.16785 43.9074 9.17045 47.2984 11.1913 49.3233C13.2165 51.3524 16.5965 51.3502 18.6201 49.3233C20.6442 47.2947 20.6421 43.9059 18.6201 41.88C17.6081 40.8665 16.2569 40.3598 14.9051 40.3598ZM17.1696 47.8705C15.9349 49.1076 13.8755 49.1066 12.6413 47.8705C11.4065 46.6333 11.4076 44.5694 12.6413 43.3333C13.8755 42.0968 15.9376 42.0983 17.1701 43.3333C18.4021 44.5679 18.3995 46.6381 17.1696 47.8705ZM25.0565 61.0362C26.4601 61.0362 27.7791 60.4883 28.7709 59.4946C30.8189 57.4425 30.8189 54.1033 28.7709 52.0513C26.7458 50.0221 23.3657 50.0237 21.3421 52.0513C19.2941 54.1033 19.2941 57.4424 21.3421 59.4946C22.3344 60.4881 23.6536 61.0362 25.0565 61.0362ZM22.7927 53.504C24.0273 52.2669 26.0872 52.268 27.3209 53.504C28.5696 54.7551 28.5696 56.7906 27.3209 58.0411C26.0863 59.2788 24.0263 59.2773 22.7927 58.0411C21.5441 56.7906 21.5441 54.7551 22.7927 53.5042V53.504Z" fill="#001645"/>
</g>
<defs>
<clipPath id="clip0_157_335">
<rect width="70" height="70" fill="white" transform="translate(0.5)"/>
</clipPath>
</defs>
</svg>
