<svg width="62" height="62" viewBox="0 0 62 62" fill="none" xmlns="http://www.w3.org/2000/svg">
<circle cx="31" cy="31" r="31" fill="#105BFB"/>
<path d="M24.3542 28C24.3012 27.3371 24.0526 26.8201 23.6085 26.4489C23.171 26.0777 22.5048 25.892 21.6099 25.892C21.0398 25.892 20.5725 25.9616 20.2079 26.1009C19.85 26.2334 19.5848 26.4157 19.4125 26.6477C19.2401 26.8797 19.1506 27.1449 19.144 27.4432C19.1307 27.6884 19.1738 27.9105 19.2733 28.1094C19.3793 28.3016 19.545 28.4773 19.7704 28.6364C19.9958 28.7888 20.2842 28.928 20.6355 29.054C20.9868 29.1799 21.4044 29.2926 21.8883 29.392L23.5588 29.75C24.6857 29.9886 25.6502 30.3035 26.4522 30.6946C27.2543 31.0857 27.9106 31.5464 28.421 32.0767C28.9314 32.6004 29.3059 33.1903 29.5446 33.8466C29.7898 34.5028 29.9158 35.2187 29.9224 35.9943C29.9158 37.3333 29.581 38.4669 28.9181 39.3949C28.2553 40.3229 27.3074 41.0289 26.0744 41.5128C24.8481 41.9967 23.3732 42.2386 21.6497 42.2386C19.8798 42.2386 18.3353 41.9768 17.0162 41.4531C15.7037 40.9295 14.6828 40.1241 13.9537 39.0369C13.2311 37.9432 12.8665 36.5445 12.8599 34.8409H18.1099C18.1431 35.464 18.2988 35.9877 18.5772 36.4119C18.8556 36.8362 19.2467 37.1577 19.7505 37.3764C20.2609 37.5952 20.8675 37.7045 21.5701 37.7045C22.1601 37.7045 22.6539 37.6316 23.0517 37.4858C23.4494 37.34 23.751 37.1378 23.9565 36.8793C24.162 36.6207 24.2681 36.3258 24.2747 35.9943C24.2681 35.6828 24.1653 35.411 23.9664 35.179C23.7742 34.9403 23.456 34.7282 23.0119 34.5426C22.5678 34.3504 21.9679 34.1714 21.2122 34.0057L19.1838 33.5682C17.3807 33.1771 15.9589 32.5241 14.9181 31.6094C13.8841 30.688 13.3703 29.4318 13.377 27.8409C13.3703 26.5483 13.715 25.4181 14.411 24.4503C15.1137 23.4759 16.0848 22.7169 17.3244 22.1733C18.5706 21.6297 19.9991 21.358 21.6099 21.358C23.2538 21.358 24.6757 21.633 25.8755 22.1832C27.0753 22.7334 28.0001 23.509 28.6497 24.5099C29.3059 25.5043 29.6374 26.6676 29.644 28H24.3542ZM31.4686 26.0909V21.6364H49.1674V26.0909H43.0424V42H37.5936V26.0909H31.4686Z" fill="white"/>
</svg>
