<svg width="70" height="70" viewBox="0 0 70 70" fill="none" xmlns="http://www.w3.org/2000/svg">
<g clip-path="url(#clip0_146_360)">
<g clip-path="url(#clip1_146_360)">
<path d="M53.9408 51.4828C51.6878 51.4828 49.8549 53.3156 49.8549 55.5686C49.8549 57.8216 51.6878 59.6545 53.9408 59.6545C56.1938 59.6545 58.0266 57.8216 58.0266 55.5686C58.0266 53.3156 56.1938 51.4828 53.9408 51.4828ZM53.9408 57.6034C52.8189 57.6034 51.9059 56.6907 51.9059 55.5685C51.9059 54.4466 52.8187 53.5336 53.9408 53.5336C55.0627 53.5336 55.9757 54.4463 55.9757 55.5685C55.9757 56.6907 55.0628 57.6034 53.9408 57.6034Z" fill="#001645"/>
<path d="M56.562 47.1475C55.1587 45.7672 53.7408 45.1729 53.6832 45.1491L40.5454 39.6537V36.9164C42.6359 35.3015 44.0816 32.8932 44.4295 30.1461C48.3401 29.9062 50.1781 25.3783 47.6854 22.5442V18.4801C47.6852 11.0472 41.638 5 34.205 5C26.7722 5 20.7248 11.0472 20.7248 18.4801V22.6646C18.2246 25.5041 20.1246 29.9107 23.9804 30.1464C24.3324 32.9568 25.8273 35.4482 28.0858 37.0767V39.6598L14.9681 45.1469C14.7342 45.243 9.24059 47.5753 9.24059 53.9937V66.8633C9.24059 68.3335 10.4367 69.5295 11.9067 69.5295H47.1729V73.9743C47.1728 74.1871 47.239 74.3947 47.3623 74.5681C47.4856 74.7416 47.6599 74.8723 47.8609 74.942C48.1856 75.0551 48.5496 74.9908 48.8096 74.7975L53.9406 70.9866C59.4906 75.1086 59.2225 74.9997 59.6832 74.9997C60.2454 74.9997 60.7085 74.5442 60.7085 73.9743V69.6652C60.7085 69.0989 60.2495 68.6398 59.6831 68.6398C59.1167 68.6398 58.6577 69.0989 58.6577 69.6652V71.9353L54.966 69.1936V64.3257C56.2792 64.1717 57.5409 63.7243 58.6577 63.0166V64.8797C58.6578 65.1516 58.7658 65.4125 58.9581 65.6048C59.1504 65.7971 59.4113 65.9052 59.6832 65.9052C59.9552 65.9052 60.216 65.7972 60.4083 65.6049C60.6006 65.4126 60.7086 65.1518 60.7086 64.8798V61.2144C61.9878 59.6835 62.7593 57.7148 62.7593 55.5684C62.7594 51.6181 60.1486 48.2663 56.562 47.1475ZM43.255 43.0103L52.4832 46.8704C51.5007 47.0356 50.5534 47.3668 49.682 47.8498L42.4389 44.6043L43.255 43.0103ZM41.3569 42.2172L38.1507 48.4794L35.7921 46.6166L40.0054 41.6531L41.3569 42.2172ZM34.3379 48.0819L35.8865 49.3048C35.8867 49.5967 35.956 50.1399 35.3767 50.3584C35.2901 50.3908 35.1985 50.4075 35.106 50.4077C33.4521 50.4077 33.4369 50.426 33.2587 50.3597C32.6959 50.1648 32.7446 49.5951 32.7446 49.3404L34.3379 48.0819ZM34.321 45.1807L30.1368 40.2752V38.2207C32.8173 39.3202 35.8996 39.3212 38.4943 38.1488V40.264L34.321 45.1807ZM44.5132 28.0798V23.0471C47.509 23.4562 47.5022 27.6745 44.5132 28.0798ZM23.8978 28.0794C21.7748 27.7866 20.7903 25.2087 22.5685 23.7279C22.9531 23.4115 23.4201 23.1896 23.8978 23.0923V28.0794ZM24.5066 20.0403C24.2393 20.2843 24.0274 20.6339 23.9432 21.0105C23.5448 21.0512 23.1529 21.1402 22.776 21.2755V18.4801C22.776 12.178 27.9031 7.05092 34.2052 7.05092C40.5073 7.05092 45.6344 12.178 45.6344 18.4801V21.2036C45.2707 21.0862 44.8945 21.0118 44.5135 20.982C44.5135 19.8881 44.5881 20.1644 41.0902 16.4045C40.4797 15.7484 39.4681 15.6057 38.6936 16.1124C38.2209 16.4211 38.0147 16.5346 37.878 16.6149C34.5608 18.5659 30.7269 19.5984 27.2002 19.5987C25.9062 19.5987 25.2529 19.3549 24.5066 20.0403ZM25.952 28.9966C25.9472 28.7274 25.9487 29.949 25.9487 21.6109C30.7369 21.9088 35.772 20.4317 39.6899 17.9104C41.3051 19.6454 42.2025 20.5777 42.4624 20.9035V28.8619C42.4624 28.9107 42.4595 28.9587 42.4587 29.0071L42.4572 29.0603L42.4574 29.0639C42.3489 33.4704 38.669 37.2234 33.8095 36.9711C29.2722 36.7259 26.0839 33.2346 25.952 28.9966ZM28.6224 41.6598L32.8641 46.6326L30.5255 48.4794L27.317 42.2124L28.6224 41.6598ZM25.4159 42.9997L26.1877 44.5073L16.6728 48.7712C16.0729 48.3041 15.4133 47.9195 14.7114 47.6275C15.5268 47.0798 14.9192 47.3905 25.4159 42.9997ZM17.9072 67.4786H11.9069C11.7438 67.4784 11.5874 67.4135 11.472 67.2982C11.3567 67.1828 11.2918 67.0264 11.2916 66.8633V53.9937C11.2916 52.0966 11.9393 50.4228 12.9731 49.208C13.9268 49.44 14.7941 49.8875 15.5272 50.4908C15.637 50.6957 15.8135 50.8569 16.0274 50.9478C17.1916 52.1274 17.9073 53.7428 17.9073 55.4856L17.9072 67.4786ZM30.0653 67.4784H19.9581V55.4855C19.9576 53.6216 19.3451 51.8095 18.2145 50.3276L27.1237 46.3353C27.1453 46.3774 28.8779 49.7638 28.9017 49.8045C29.2622 50.4188 30.0362 50.8608 30.8778 50.6222C30.9996 50.9447 31.1791 51.2422 31.4078 51.5001L30.0653 67.4784ZM47.1732 67.4786H38.571L38.0706 61.5435C38.0478 61.2725 37.9182 61.0217 37.7104 60.8462C37.5027 60.6707 37.2337 60.585 36.9627 60.6078C36.6917 60.6307 36.4409 60.7602 36.2654 60.968C36.09 61.1758 36.0042 61.4447 36.0271 61.7157L36.513 67.4786H32.1236L33.3858 52.4553C33.4814 52.46 35.1238 52.4614 35.2463 52.4553L35.6236 56.9303C35.6712 57.4945 36.168 57.913 36.7316 57.8659C37.0026 57.843 37.2534 57.7134 37.4289 57.5056C37.6044 57.2979 37.6901 57.0289 37.6673 56.7579L37.224 51.5004C37.455 51.2396 37.6359 50.9384 37.7575 50.612C38.5484 50.8239 39.3787 50.5237 39.9189 49.5266L41.5032 46.4323L47.7954 49.2519C44.4498 52.5109 44.2529 57.7287 47.1733 61.2208V67.4786H47.1732ZM52.9154 69.1937L49.2237 71.9354V63.0167C50.3413 63.723 51.6026 64.1706 52.9154 64.3269V69.1937ZM57.949 61.0174C53.3817 64.3893 47.1735 60.9296 47.1735 55.5686C47.1735 51.1342 51.3996 47.8612 55.7261 49.0415C58.594 49.8268 60.7086 52.4545 60.7086 55.5686C60.7088 56.6297 60.459 57.6759 59.9796 58.6226C59.5001 59.5692 58.8045 60.3896 57.949 61.0174Z" fill="#001645"/>
</g>
</g>
<defs>
<clipPath id="clip0_146_360">
<rect width="70" height="70" fill="white"/>
</clipPath>
<clipPath id="clip1_146_360">
<rect width="70" height="70" fill="white"/>
</clipPath>
</defs>
</svg>
