<svg width="71" height="70" viewBox="0 0 71 70" fill="none" xmlns="http://www.w3.org/2000/svg">
<g clip-path="url(#clip0_67_38)">
<path d="M39.3364 27.2602C39.6089 27.2602 39.8702 27.1519 40.0629 26.9593C40.2556 26.7666 40.3638 26.5053 40.3638 26.2328V25.1369C40.3638 24.8644 40.2556 24.6031 40.0629 24.4104C39.8702 24.2177 39.6089 24.1095 39.3364 24.1095C39.0639 24.1095 38.8026 24.2177 38.6099 24.4104C38.4173 24.6031 38.309 24.8644 38.309 25.1369V26.2328C38.309 26.5053 38.4173 26.7666 38.6099 26.9593C38.8026 27.1519 39.0639 27.2602 39.3364 27.2602ZM26.1858 24.1095C25.9133 24.1095 25.652 24.2177 25.4593 24.4104C25.2666 24.6031 25.1584 24.8644 25.1584 25.1369V26.2328C25.1584 26.5053 25.2666 26.7666 25.4593 26.9593C25.652 27.1519 25.9133 27.2602 26.1858 27.2602C26.4583 27.2602 26.7196 27.1519 26.9123 26.9593C27.1049 26.7666 27.2132 26.5053 27.2132 26.2328V25.1369C27.2132 24.8644 27.1049 24.6031 26.9123 24.4104C26.7196 24.2177 26.4583 24.1095 26.1858 24.1095ZM30.1099 30.4393L32.3016 31.5352C32.5444 31.6493 32.8221 31.6639 33.0755 31.576C33.3289 31.4881 33.5379 31.3046 33.6579 31.0647C33.7778 30.8248 33.7992 30.5475 33.7175 30.2921C33.6358 30.0366 33.4575 29.8232 33.2205 29.6974L31.9477 29.061L33.68 25.5963C33.7403 25.4757 33.7763 25.3443 33.7859 25.2097C33.7955 25.0751 33.7784 24.94 33.7358 24.812C33.6931 24.684 33.6257 24.5657 33.5372 24.4637C33.4488 24.3618 33.3412 24.2783 33.2205 24.218C33.0999 24.1576 32.9685 24.1217 32.8339 24.1121C32.6993 24.1025 32.5642 24.1195 32.4362 24.1622C32.3082 24.2049 32.1899 24.2723 32.0879 24.3607C31.986 24.4491 31.9025 24.5568 31.8422 24.6774L29.6504 29.061C29.5286 29.3047 29.5085 29.5868 29.5947 29.8453C29.6809 30.1038 29.8662 30.3175 30.1099 30.4393ZM38.172 33.904C38.172 33.6315 38.0638 33.3702 37.8711 33.1775C37.6784 32.9848 37.4171 32.8766 37.1446 32.8766H28.3776C28.1051 32.8766 27.8437 32.9848 27.6511 33.1775C27.4584 33.3702 27.3502 33.6315 27.3502 33.904C27.3502 36.8875 29.7775 39.3149 32.7611 39.3149C35.7446 39.3149 38.172 36.8875 38.172 33.904ZM29.5658 34.9314H35.9564C35.5215 36.2811 34.2534 37.2601 32.7611 37.2601C31.2688 37.2601 30.0007 36.2811 29.5658 34.9314Z" fill="#001645"/>
<path d="M63.2384 28.0967C59.2289 26.873 55.1147 28.6691 54.0672 32.1006L50.4836 43.8401C50.4207 43.8379 50.358 43.8353 50.2951 43.8353H40.4054C44.9632 41.1894 48.0349 36.2549 48.0349 30.6162V30.5448C48.0578 30.5452 48.0804 30.5477 48.1034 30.5477C50.4827 30.5477 52.4184 28.6119 52.4184 26.2326C52.4184 24.8291 51.7444 23.5802 50.7035 22.7917C50.8873 22.7121 51.0439 22.5804 51.1539 22.4129C51.2639 22.2454 51.3225 22.0495 51.3225 21.8491V18.5614C51.3225 18.2889 51.2143 18.0276 51.0216 17.835C50.8289 17.6423 50.5676 17.534 50.2951 17.534H49.1034C48.9138 13.5727 47.625 10.1109 45.3419 7.47518C43.0276 4.80368 39.7949 3.07273 35.9801 2.45026V1.02739C35.9801 0.754912 35.8719 0.49359 35.6792 0.300916C35.4865 0.108243 35.2252 0 34.9527 0L30.5692 0C30.2967 0 30.0354 0.108243 29.8427 0.300916C29.65 0.49359 29.5418 0.754912 29.5418 1.02739V2.45013C25.7541 3.0678 22.5406 4.77793 20.2279 7.42024C17.9147 10.0634 16.6094 13.5442 16.4186 17.5342H15.2269C15.092 17.5342 14.9584 17.5608 14.8337 17.6124C14.7091 17.664 14.5958 17.7397 14.5004 17.8351C14.405 17.9305 14.3294 18.0438 14.2777 18.1684C14.2261 18.2931 14.1995 18.4266 14.1995 18.5616V21.8492C14.1996 22.0496 14.2582 22.2456 14.3682 22.413C14.4781 22.5805 14.6347 22.7122 14.8186 22.7918C13.7776 23.5803 13.1036 24.8292 13.1036 26.2328C13.1036 28.6121 15.0394 30.5478 17.4187 30.5478C17.4417 30.5478 17.4643 30.5454 17.4872 30.5449V30.6163C17.4872 36.2551 20.5589 41.1896 25.1166 43.8354H15.2269C12.2434 43.8354 9.81598 46.2628 9.81598 49.2464V53.5709L4.76682 57.1774C4.63374 57.2725 4.52527 57.3979 4.45043 57.5433C4.3756 57.6888 4.33655 57.8499 4.33655 58.0135V67.9449H3.17217C2.89969 67.9449 2.63837 68.0532 2.44569 68.2458C2.25302 68.4385 2.14478 68.6998 2.14478 68.9723C2.14478 69.2448 2.25302 69.5061 2.44569 69.6988C2.63837 69.8915 2.89969 69.9997 3.17217 69.9997H22.8981C23.1706 69.9997 23.4319 69.8915 23.6246 69.6988C23.8173 69.5061 23.9255 69.2448 23.9255 68.9723C23.9255 68.6998 23.8173 68.4385 23.6246 68.2458C23.4319 68.0532 23.1706 67.9449 22.8981 67.9449H21.7337V58.0135C21.7337 57.8499 21.6947 57.6888 21.6199 57.5433C21.545 57.3979 21.4365 57.2725 21.3035 57.1774L13.6323 51.698C13.458 51.5736 13.2492 51.5067 13.0351 51.5067C12.8209 51.5067 12.6122 51.5736 12.4379 51.698L11.8706 52.1032V49.2464C11.8706 47.3958 13.3762 45.8902 15.2268 45.8902H25.6358L31.906 55.2957C31.9963 55.4311 32.1175 55.5431 32.2596 55.6226C32.4017 55.702 32.5606 55.7465 32.7233 55.7524C32.8859 55.7584 33.0477 55.7256 33.1952 55.6567C33.3427 55.5879 33.4717 55.485 33.5716 55.3565L40.9348 45.8902H49.858L42.9038 68.6725C42.8644 68.8015 42.8508 68.937 42.8638 69.0713C42.8768 69.2056 42.9161 69.3361 42.9795 69.4552C43.0429 69.5743 43.1292 69.6797 43.2333 69.7655C43.3375 69.8513 43.4575 69.9157 43.5865 69.9551C43.7156 69.9944 43.8511 70.008 43.9854 69.995C44.1197 69.982 44.2501 69.9427 44.3692 69.8793C44.4883 69.8159 44.5938 69.7297 44.6796 69.6255C44.7653 69.5214 44.8297 69.4014 44.8691 69.2723L54.7325 36.9596C54.7866 37.0508 54.8424 37.1415 54.9013 37.2315C55.9184 38.7845 57.5299 39.9608 59.4391 40.5437C60.288 40.8028 61.1533 40.9318 62.0034 40.9318C63.0651 40.9318 64.1029 40.7305 65.0532 40.3304C65.1514 40.2888 65.2487 40.245 65.3449 40.199L56.6533 68.6726C56.5738 68.9332 56.601 69.2148 56.7291 69.4553C56.8571 69.6958 57.0754 69.8756 57.3361 69.9552C57.5967 70.0347 57.8782 70.0075 58.1188 69.8795C58.3593 69.7514 58.5391 69.5331 58.6187 69.2725L68.6103 36.54C69.6577 33.1082 67.2479 29.3207 63.2384 28.0967ZM11.8708 67.9449V63.4244H14.1995V67.9449H11.8708ZM13.0351 53.7966L19.679 58.5422V67.9449H16.2543V62.397C16.2543 62.1245 16.1461 61.8632 15.9534 61.6705C15.7607 61.4779 15.4994 61.3696 15.2269 61.3696H10.8434C10.5709 61.3696 10.3096 61.4779 10.1169 61.6705C9.92422 61.8632 9.81598 62.1245 9.81598 62.397V67.9449H6.39133V58.5422L13.0351 53.7966ZM48.1035 28.493C48.0806 28.493 48.0579 28.4908 48.035 28.4902V23.9754C48.0579 23.9747 48.0805 23.9725 48.1035 23.9725C49.3498 23.9725 50.3638 24.9865 50.3638 26.2328C50.3638 27.4791 49.3498 28.493 48.1035 28.493ZM31.5967 2.05479H33.9255V17.5342H31.5967V2.05479ZM29.5419 4.53354V17.5342H18.4768C18.8495 10.6205 22.9963 5.73751 29.5419 4.53354ZM16.2543 19.589H38.9196C39.192 19.589 39.4534 19.4807 39.646 19.288C39.8387 19.0954 39.947 18.8341 39.947 18.5616C39.947 18.2891 39.8387 18.0278 39.646 17.8351C39.4534 17.6424 39.192 17.5342 38.9196 17.5342H35.9803V4.53313C42.5219 5.73751 46.6717 10.6305 47.0454 17.5342H43.8865C43.614 17.5342 43.3527 17.6424 43.1601 17.8351C42.9674 18.0278 42.8591 18.2891 42.8591 18.5616C42.8591 18.8341 42.9674 19.0954 43.1601 19.288C43.3527 19.4807 43.614 19.589 43.8865 19.589H49.268V20.8218H16.2544V19.589H16.2543ZM17.4187 28.493C16.1724 28.493 15.1584 27.4791 15.1584 26.2328C15.1584 24.9865 16.1724 23.9725 17.4187 23.9725C17.4417 23.9725 17.4643 23.9747 17.4872 23.9754V28.4902C17.4643 28.4908 17.4417 28.493 17.4187 28.493ZM19.542 30.6163V22.8766H45.9802V30.6163C45.9802 37.9053 40.0501 43.8354 32.7611 43.8354C25.4721 43.8354 19.542 37.9053 19.542 30.6163ZM32.8252 52.9699L28.1055 45.8902H38.3316L32.8252 52.9699ZM64.2559 38.4364C62.9871 38.9705 61.4895 39.0209 60.0391 38.5782C58.5887 38.1355 57.3746 37.2574 56.6202 36.1056C55.9046 35.0127 55.6958 33.8036 56.0325 32.7004C56.587 30.8837 58.4865 29.7641 60.673 29.7641C61.3124 29.7641 61.9765 29.8599 62.6385 30.0619C65.5644 30.9551 67.3616 33.5919 66.6451 35.9397C66.3084 37.043 65.4599 37.9296 64.2559 38.4364Z" fill="#001645"/>
<path d="M62.2786 31.2412C61.2469 30.9263 60.1792 30.9029 59.2724 31.1752C58.2333 31.4872 57.4822 32.1744 57.2118 33.0602C56.9413 33.9463 57.1806 34.9357 57.8683 35.7749C58.4684 36.5073 59.3672 37.0841 60.3991 37.399C60.9689 37.573 61.5333 37.6556 62.0685 37.6556C63.7063 37.6556 65.0686 36.881 65.4659 35.5798C65.9927 33.8534 64.5929 31.9476 62.2786 31.2412ZM63.5006 34.98C63.3618 35.4339 62.3182 35.8367 60.9988 35.4338C60.3602 35.2389 59.7984 34.8885 59.4574 34.4726C59.2866 34.2641 59.1048 33.9801 59.1676 33.6971C59.2207 33.4572 59.451 33.3094 59.6611 33.2174C60.2851 32.9441 61.0432 33.0127 61.6786 33.2067C62.9984 33.6093 63.6392 34.526 63.5006 34.98Z" fill="#001645"/>
</g>
<defs>
<clipPath id="clip0_67_38">
<rect width="70" height="70" fill="white" transform="translate(0.5)"/>
</clipPath>
</defs>
</svg>
