<svg width="70" height="70" viewBox="0 0 70 70" fill="none" xmlns="http://www.w3.org/2000/svg">
<g clip-path="url(#clip0_67_54)">
<path d="M62.1693 21.3824L63.6007 19.7172L64.9957 20.9166C65.0985 21.005 65.2177 21.0723 65.3465 21.1146C65.4752 21.1569 65.6111 21.1734 65.7463 21.1632C65.8814 21.153 66.0133 21.1163 66.1343 21.0551C66.2552 20.994 66.363 20.9096 66.4513 20.8068L68.6675 18.2291C68.846 18.0215 68.9346 17.7516 68.914 17.4786C68.8934 17.2056 68.7653 16.952 68.5577 16.7736L60.9356 10.2207C60.833 10.1321 60.7138 10.0647 60.585 10.0224C60.4561 9.98008 60.3202 9.96366 60.185 9.97409C59.912 9.99467 59.6584 10.1228 59.48 10.3304L57.2638 12.9081C57.0853 13.1157 56.9967 13.3857 57.0173 13.6586C57.0379 13.9316 57.166 14.1852 57.3736 14.3636L58.7686 15.563L57.2276 17.3555C54.071 15.3393 50.4789 13.9473 46.6263 13.3562V10.2374H50.1812C51.8404 10.2374 53.1901 8.88754 53.1901 7.22833V4.82678C53.1901 3.16757 51.8403 1.81775 50.1812 1.81775H34.6732C33.014 1.81775 31.6642 3.16757 31.6642 4.82678V7.22833C31.6642 8.88754 33.014 10.2374 34.6732 10.2374H38.2282V13.3562C34.2997 13.959 30.6425 15.3953 27.4412 17.4762L25.7964 15.563L27.1915 14.3636C27.399 14.1851 27.5271 13.9315 27.5476 13.6585C27.5682 13.3856 27.4796 13.1156 27.3012 12.908L25.085 10.3303C24.9966 10.2275 24.8889 10.1431 24.7679 10.082C24.6469 10.0208 24.5151 9.98411 24.3799 9.97392C24.2447 9.96374 24.1089 9.98028 23.9801 10.0226C23.8513 10.0649 23.7321 10.1322 23.6294 10.2206L16.0074 16.7734C15.8 16.952 15.6719 17.2056 15.6513 17.4786C15.6307 17.7515 15.7194 18.0215 15.8977 18.2291L18.1139 20.8068C18.2108 20.9197 18.3309 21.0102 18.4661 21.0722C18.6013 21.1342 18.7483 21.1662 18.897 21.166C19.1438 21.1663 19.3825 21.0777 19.5694 20.9165L20.9644 19.7172L22.5315 21.5399C21.1717 22.9581 19.9663 24.5167 18.9357 26.1895C18.9004 26.1859 18.865 26.1841 18.8296 26.1841H12.3112C12.0375 26.1841 11.7749 26.2928 11.5814 26.4864C11.3878 26.68 11.279 26.9425 11.279 27.2163C11.279 27.49 11.3878 27.7526 11.5814 27.9461C11.7749 28.1397 12.0375 28.2485 12.3112 28.2485H17.7858C17.2394 29.3332 16.7656 30.453 16.3677 31.6005H5.93865C5.6649 31.6005 5.40236 31.7092 5.20878 31.9028C5.01521 32.0964 4.90646 32.3589 4.90646 32.6326C4.90646 32.9064 5.01521 33.1689 5.20878 33.3625C5.40236 33.5561 5.6649 33.6648 5.93865 33.6648H15.7411C15.3644 35.1138 15.1071 36.5912 14.9717 38.0822H1.03219C0.758434 38.0822 0.495893 38.1909 0.30232 38.3845C0.108748 38.5781 0 38.8406 0 39.1144C0 39.3881 0.108748 39.6507 0.30232 39.8442C0.495893 40.0378 0.758434 40.1465 1.03219 40.1465H14.8606C14.858 40.3008 14.8547 40.4548 14.8547 40.6098C14.8547 41.9523 14.9531 43.2722 15.1394 44.5639H4.97528C4.70152 44.5639 4.43898 44.6726 4.24541 44.8662C4.05184 45.0598 3.94309 45.3223 3.94309 45.5961C3.94309 45.8698 4.05184 46.1324 4.24541 46.3259C4.43898 46.5195 4.70152 46.6283 4.97528 46.6283H15.5182C15.772 47.7653 16.0983 48.8848 16.4952 49.9801H11.3479C11.0741 49.9801 10.8116 50.0889 10.618 50.2824C10.4244 50.476 10.3157 50.7386 10.3157 51.0123C10.3157 51.2861 10.4244 51.5486 10.618 51.7422C10.8116 51.9357 11.0741 52.0445 11.3479 52.0445H17.34C21.6931 61.557 31.3006 68.1824 42.4274 68.1824C48.2389 68.1824 53.7972 66.3955 58.5014 63.0149C58.7212 62.8541 58.8686 62.6131 58.9115 62.3442C58.9544 62.0753 58.8893 61.8004 58.7304 61.5792C58.5714 61.3581 58.3316 61.2088 58.0631 61.1637C57.7945 61.1186 57.5191 61.1815 57.2967 61.3386C52.9457 64.4654 47.8039 66.1182 42.4274 66.1182C28.362 66.1182 16.9191 54.6752 16.9191 40.6099C16.9191 26.5445 28.362 15.1016 42.4274 15.1016C49.2361 15.1016 55.4303 17.7832 60.0095 22.1456C60.0189 22.1555 60.0294 22.1646 60.0391 22.1743C64.9021 26.8218 67.9356 33.3682 67.9356 40.6099C67.9356 47.4317 65.2767 53.8431 60.4486 58.6627C60.3526 58.7585 60.2765 58.8722 60.2245 58.9974C60.1725 59.1226 60.1457 59.2568 60.1456 59.3924C60.1455 59.5279 60.1721 59.6622 60.2238 59.7875C60.2756 59.9127 60.3515 60.0266 60.4473 60.1225C60.6407 60.3162 60.9032 60.4252 61.1769 60.4254C61.4506 60.4257 61.7132 60.3172 61.907 60.1238C67.1258 54.914 70 47.9839 70 40.6098C70 33.1384 67.0118 26.3531 62.1693 21.3824ZM60.3726 12.4589L66.4293 17.6659L65.559 18.6782L59.5023 13.4711L60.3726 12.4589ZM60.3342 16.9089L62.0354 18.3714L60.6729 19.9563C60.1128 19.4608 59.5334 18.9866 58.9341 18.5372L60.3342 16.9089ZM37.8625 8.17299V3.88212H39.5294V8.17299H37.8625ZM41.5938 3.88212H43.2607V8.17299H41.5938V3.88212ZM45.3251 8.17299V3.88212H46.9921V8.17299H45.3251ZM51.126 4.82678V7.22833C51.1257 7.47877 51.0261 7.71888 50.8491 7.89598C50.672 8.07307 50.4319 8.1727 50.1815 8.17299H49.0567V3.88212H50.1815C50.4319 3.88241 50.672 3.98204 50.8491 4.15914C51.0261 4.33623 51.1257 4.57634 51.126 4.82678ZM33.7287 7.22833V4.82678C33.729 4.57633 33.8286 4.33622 34.0057 4.15913C34.1828 3.98203 34.4229 3.88241 34.6733 3.88212H35.7982V8.17299H34.6733C34.4229 8.1727 34.1828 8.07308 34.0057 7.89598C33.8286 7.71889 33.729 7.47878 33.7287 7.22833ZM19.0063 18.6783L18.1359 17.6661L24.1925 12.459L25.0629 13.4713L23.668 14.6705L23.6678 14.6707L20.4012 17.479L20.401 17.4793L19.0063 18.6783ZM22.5607 18.3448L24.2309 16.9089L25.746 18.6712C25.1508 19.1246 24.5742 19.602 24.0176 20.102L22.5297 18.3715L22.5607 18.3448ZM40.2926 13.119V10.2374H44.5621V13.1191C43.141 13.0097 41.7137 13.0096 40.2926 13.119Z" fill="#001645"/>
<path d="M33.7826 21.8046C33.6558 21.562 33.4378 21.3797 33.1766 21.2979C32.9154 21.216 32.6324 21.2412 32.3897 21.3679C26.1143 24.6481 21.8223 30.793 20.9085 37.8056C19.3623 49.671 27.7577 60.5824 39.6232 62.1284C40.558 62.2506 41.4998 62.3119 42.4425 62.3119C53.1703 62.3109 62.5233 54.3313 63.946 43.4138C64.695 37.6659 63.1609 31.9704 59.626 27.3764C56.0912 22.7824 50.9791 19.8399 45.2311 19.0908C42.4269 18.7253 39.6302 18.9016 36.9181 19.6142C36.6569 19.6869 36.4347 19.8595 36.2996 20.0947C36.1645 20.3299 36.1275 20.6088 36.1964 20.8711C36.2653 21.1334 36.4347 21.358 36.6679 21.4965C36.9012 21.6349 37.1795 21.676 37.4428 21.6108C38.7356 21.2711 40.06 21.0655 41.3949 20.9973V23.7092C41.3949 24.2793 41.857 24.7414 42.4271 24.7414C42.9973 24.7414 43.4593 24.2793 43.4593 23.7092V20.9998C43.9604 21.0269 44.4622 21.0723 44.9645 21.1377C48.9843 21.6615 52.6598 23.3719 55.5991 26.0406L53.7297 27.9098C53.6338 28.0056 53.5578 28.1194 53.5059 28.2446C53.454 28.3698 53.4273 28.504 53.4272 28.6396C53.4272 28.7751 53.4539 28.9094 53.5058 29.0346C53.5577 29.1598 53.6337 29.2736 53.7296 29.3694C53.8253 29.4655 53.9391 29.5416 54.0644 29.5935C54.1896 29.6454 54.3239 29.672 54.4595 29.6718C54.5951 29.672 54.7294 29.6454 54.8546 29.5935C54.9799 29.5416 55.0936 29.4655 55.1894 29.3694L57.0534 27.5055C57.3792 27.8704 57.6917 28.2472 57.99 28.6349C60.4581 31.8426 61.847 35.6438 62.0418 39.6021H59.4815C58.9113 39.6021 58.4493 40.0643 58.4493 40.6343C58.4493 41.2044 58.9113 41.6665 59.4815 41.6665H62.0362C62.0088 42.1614 61.9631 42.6552 61.899 43.1467C61.3672 47.2271 59.6107 50.8532 57.049 53.7051L55.2806 51.9368C55.0868 51.7446 54.8247 51.637 54.5517 51.6376C54.2787 51.6382 54.0171 51.7469 53.8241 51.9399C53.6311 52.1329 53.5223 52.3945 53.5217 52.6675C53.5211 52.9404 53.6287 53.2025 53.8208 53.3964L55.5911 55.1667C52.34 58.1022 48.1302 59.9445 43.5883 60.2117V57.6884C43.5883 57.1183 43.1263 56.6562 42.5561 56.6562C41.9859 56.6562 41.5239 57.1183 41.5239 57.6884V60.2244C40.9775 60.1993 40.4324 60.1514 39.89 60.081C35.8544 59.5551 32.2627 57.8318 29.4253 55.3157L31.2535 53.4875C31.6566 53.0844 31.6566 52.431 31.2535 52.0279C30.8504 51.6248 30.1968 51.6248 29.7939 52.0279L27.9552 53.8664C24.9756 50.6085 23.1014 46.3709 22.8263 41.7952H25.5019C25.7756 41.7952 26.0382 41.6864 26.2318 41.4929C26.4253 41.2993 26.5341 41.0368 26.5341 40.763C26.5341 40.4892 26.4253 40.2267 26.2318 40.0331C26.0382 39.8396 25.7756 39.7308 25.5019 39.7308H22.8112C22.8362 39.1809 22.8832 38.6276 22.9556 38.072C23.4723 34.1069 25.1829 30.4482 27.779 27.5368L29.7027 29.4604C29.9042 29.662 30.1685 29.7628 30.4326 29.7628C30.6967 29.7628 30.9609 29.662 31.1624 29.4604C31.3559 29.2669 31.4647 29.0043 31.4647 28.7306C31.4647 28.4569 31.3559 28.1943 31.1624 28.0008L29.2334 26.0718C30.4758 24.9417 31.8579 23.9756 33.346 23.1971C33.4661 23.1344 33.5727 23.0486 33.6596 22.9447C33.7466 22.8407 33.8122 22.7207 33.8528 22.5913C33.8934 22.462 33.908 22.326 33.896 22.191C33.884 22.056 33.8454 21.9247 33.7826 21.8046Z" fill="#001645"/>
<path d="M42.4274 31.1415C42.1537 31.1415 41.8911 31.2502 41.6975 31.4438C41.504 31.6374 41.3952 31.8999 41.3952 32.1737V38.3049C40.5151 38.7007 39.8998 39.5838 39.8998 40.6098C39.8998 42.0035 41.0337 43.1374 42.4274 43.1374C42.8095 43.1374 43.1706 43.0497 43.4957 42.8973L50.382 49.7836C50.4777 49.8796 50.5915 49.9557 50.7168 50.0076C50.8421 50.0595 50.9764 50.0861 51.1119 50.086C51.3161 50.086 51.5157 50.0254 51.6854 49.912C51.8552 49.7986 51.9875 49.6374 52.0656 49.4488C52.1437 49.2602 52.1642 49.0527 52.1244 48.8525C52.0846 48.6522 51.9863 48.4683 51.8419 48.3239L44.8489 41.3308C44.9172 41.1021 44.955 40.8604 44.955 40.6098C44.955 39.5839 44.3397 38.7007 43.4597 38.305V32.1738C43.4597 31.9 43.3509 31.6375 43.1573 31.4439C42.9637 31.2503 42.7012 31.1415 42.4274 31.1415ZM41.9642 40.6097C41.9643 40.4868 42.0132 40.3691 42.1 40.2823C42.1868 40.1954 42.3046 40.1466 42.4274 40.1464C42.6827 40.1464 42.8905 40.3542 42.8905 40.6097C42.8905 40.8651 42.6827 41.0729 42.4274 41.0729C42.3046 41.0728 42.1868 41.0239 42.1 40.9371C42.0132 40.8502 41.9643 40.7325 41.9642 40.6097Z" fill="#001645"/>
</g>
<defs>
<clipPath id="clip0_67_54">
<rect width="70" height="70" fill="white"/>
</clipPath>
</defs>
</svg>
