<svg width="71" height="70" viewBox="0 0 71 70" fill="none" xmlns="http://www.w3.org/2000/svg">
<g clip-path="url(#clip0_157_320)">
<path d="M12.1665 70C11.9785 70 11.7889 69.9647 11.6079 69.8888C11.0643 69.6646 10.7085 69.1312 10.7085 68.5415V59.7915C10.7085 58.9851 11.3616 58.3335 12.1665 58.3335C12.9718 58.3335 13.625 58.9851 13.625 59.7915V65.0215L19.8858 58.7608C20.0209 58.6251 20.1816 58.5175 20.3585 58.4442C20.5353 58.3709 20.725 58.3333 20.9165 58.3335H64.6665C66.2751 58.3335 67.5835 57.0251 67.5835 55.4165V14.5835C67.5835 12.9749 66.2751 11.6665 64.6665 11.6665H57.375C56.5686 11.6665 55.9165 11.0134 55.9165 10.2085C55.9165 9.40324 56.5686 8.75 57.375 8.75H64.6665C67.8836 8.75 70.5 11.3664 70.5 14.5835V55.4165C70.5 58.6336 67.8836 61.25 64.6665 61.25H21.5205L13.1978 69.5728C12.9241 69.8461 12.5532 69.9997 12.1665 70ZM6.33352 61.25C3.11639 61.25 0.5 58.6336 0.5 55.4165V14.5835C0.5 11.3664 3.11639 8.75 6.33352 8.75H13.625C14.4299 8.75 15.0835 9.40311 15.0835 10.2085C15.0835 11.0134 14.4299 11.6665 13.625 11.6665H6.33352C4.72488 11.6665 3.41648 12.9749 3.41648 14.5835V55.4165C3.41648 57.0251 4.72488 58.3335 6.33352 58.3335C7.13838 58.3335 7.79148 58.9851 7.79148 59.7915C7.79148 60.5979 7.13838 61.25 6.33352 61.25Z" fill="#001645"/>
<path d="M55.9165 36.4585H54.4585C53.6521 36.4585 53 35.8049 53 35C53 34.1951 53.6521 33.5415 54.4585 33.5415H55.9165C57.5251 33.5415 58.8335 32.2336 58.8335 30.625V27.7085C58.8335 26.0999 57.5251 24.7915 55.9165 24.7915H54.4585C53.6521 24.7915 53 24.1384 53 23.3335V20.4165C53 10.7671 45.1499 2.91648 35.5 2.91648C25.8501 2.91648 18 10.7671 18 20.4165V23.3335C18 24.1384 17.3469 24.7915 16.5415 24.7915C15.7366 24.7915 15.0835 24.1384 15.0835 23.3335V20.4165C15.0835 9.15852 24.2415 0 35.5 0C46.7585 0 55.9165 9.15852 55.9165 20.4165V21.875C59.1336 21.875 61.75 24.4914 61.75 27.7085V30.625C61.75 33.8421 59.1336 36.4585 55.9165 36.4585Z" fill="#001645"/>
<path d="M16.5415 36.4585H15.0835C11.8664 36.4585 9.25 33.8421 9.25 30.625V27.7085C9.25 24.4914 11.8664 21.875 15.0835 21.875H16.5415C17.3468 21.875 18 22.5281 18 23.3335V35C18 35.8048 17.3469 36.4585 16.5415 36.4585ZM15.0835 24.7915C13.4749 24.7915 12.1665 26.0999 12.1665 27.7085V30.625C12.1665 32.2336 13.4749 33.5415 15.0835 33.5415V24.7915ZM35.5 55.4165C33.0876 55.4165 31.125 53.4539 31.125 51.0415C31.125 48.6297 33.0876 46.6665 35.5 46.6665C37.4018 46.6665 39.0232 47.8857 39.6256 49.5835H39.875C47.1126 49.5835 53 43.696 53 36.4585V29.1665C53 28.3616 53.6521 27.7085 54.4585 27.7085C55.2649 27.7085 55.9165 28.3616 55.9165 29.1665V36.4585C55.9165 45.303 48.7196 52.5 39.875 52.5H38.4165C38.2249 52.5001 38.0352 52.4625 37.8582 52.3892C37.6813 52.316 37.5205 52.2086 37.385 52.0731C37.2496 51.9376 37.1422 51.7768 37.069 51.5997C36.9959 51.4227 36.9583 51.233 36.9585 51.0415C36.9585 50.2366 36.3036 49.5835 35.5 49.5835C34.6964 49.5835 34.0415 50.2366 34.0415 51.0415C34.0415 51.8467 34.6964 52.5 35.5 52.5C36.3049 52.5 36.9585 53.1521 36.9585 53.9585C36.9585 54.7649 36.3049 55.4165 35.5 55.4165ZM48.625 21.875C47.8186 21.875 47.1665 21.2219 47.1665 20.4165C47.1665 13.9838 41.9328 8.74998 35.5 8.74998C29.0672 8.74998 23.8335 13.9837 23.8335 20.4165C23.8335 21.2217 23.1799 21.875 22.375 21.875C21.5701 21.875 20.9165 21.2219 20.9165 20.4165C20.9165 12.3752 27.4587 5.8335 35.5 5.8335C43.5413 5.8335 50.0835 12.3752 50.0835 20.4165C50.0835 21.2217 49.4314 21.875 48.625 21.875ZM28.2085 37.9165H31.125V40.8335H28.2085V37.9165ZM34.0415 37.9165H36.9585V40.8335H34.0415V37.9165Z" fill="#001645"/>
<path d="M39.875 37.9165H42.7915V40.8335H39.875V37.9165Z" fill="#001645"/>
</g>
<defs>
<clipPath id="clip0_157_320">
<rect width="70" height="70" fill="white" transform="translate(0.5)"/>
</clipPath>
</defs>
</svg>
