<svg width="71" height="70" viewBox="0 0 71 70" fill="none" xmlns="http://www.w3.org/2000/svg">
<path d="M10.5833 58.3341H20.6688C20.9588 58.3341 21.237 58.2189 21.4421 58.0138C21.6473 57.8086 21.7625 57.5304 21.7625 57.2404V55.638H25.9133L29.2656 58.6437C30.7288 59.9562 32.6255 60.6816 34.5911 60.6802H40.7161V62.8677C40.7161 64.6552 41.4262 66.3695 42.6901 67.6334C43.954 68.8973 45.6683 69.6074 47.4558 69.6074C49.2433 69.6074 50.9575 68.8973 52.2215 67.6334C53.4854 66.3695 54.1955 64.6552 54.1955 62.8677V60.6802H54.435C55.4271 60.7127 56.3918 60.3515 57.1184 59.6752C57.8451 58.999 58.2747 58.0627 58.3134 57.0708V55.218C58.3129 54.5661 58.1254 53.928 57.7731 53.3794C58.3866 53.0951 58.9074 52.6437 59.276 52.0768C59.6445 51.51 59.8458 50.8508 59.8567 50.1747V48.3285C59.8543 47.8554 59.7555 47.3877 59.5663 46.9541C59.3772 46.5204 59.1016 46.1299 58.7564 45.8063C59.1016 45.4827 59.3772 45.0922 59.5663 44.6585C59.7555 44.2249 59.8543 43.7572 59.8567 43.2841V41.4368C59.8457 40.7609 59.6444 40.1018 59.2758 39.5352C58.9073 38.9686 58.3865 38.5173 57.7731 38.2332C58.1255 37.6843 58.313 37.0458 58.3134 36.3935V34.5461C58.2747 33.5543 57.8451 32.618 57.1184 31.9418C56.3918 31.2655 55.4271 30.9042 54.435 30.9368H54.1911V24.8676C56.4003 23.6625 58.2451 21.8859 59.5324 19.7237C60.8198 17.5614 61.5025 15.093 61.5091 12.5765C61.5157 10.06 60.846 7.58801 59.5699 5.41905C58.2939 3.25008 56.4585 1.46387 54.2556 0.24724C54.0892 0.155188 53.9016 0.108125 53.7115 0.110696C53.5213 0.113266 53.3351 0.165382 53.1712 0.261899C53.0073 0.358416 52.8714 0.495999 52.777 0.661068C52.6825 0.826137 52.6327 1.01299 52.6325 1.20318V11.8924L47.4536 14.6749L42.2747 11.8924V1.20318C42.2745 1.01299 42.2247 0.826137 42.1302 0.661068C42.0358 0.495999 41.8999 0.358416 41.736 0.261899C41.5721 0.165382 41.3859 0.113266 41.1957 0.110696C41.0055 0.108125 40.818 0.155188 40.6516 0.24724C38.4481 1.46328 36.612 3.24924 35.3354 5.41821C34.0588 7.58719 33.3887 10.0594 33.3952 12.5762C33.4016 15.0929 34.0845 17.5617 35.3722 19.724C36.66 21.8864 38.5053 23.6629 40.715 24.8676V25.4144H34.9947C33.7178 25.4148 32.4597 25.7214 31.3258 26.3085C30.1919 26.8956 29.2154 27.7461 28.4781 28.7886L25.7656 32.6288H21.7625V31.0265C21.7625 30.7364 21.6473 30.4582 21.4421 30.2531C21.237 30.0479 20.9588 29.9327 20.6688 29.9327H10.5833C10.2932 29.9327 10.015 30.0479 9.80988 30.2531C9.60477 30.4582 9.48953 30.7364 9.48953 31.0265V57.2404C9.48953 57.5304 9.60477 57.8086 9.80988 58.0138C10.015 58.2189 10.2932 58.3341 10.5833 58.3341ZM19.575 56.1466H11.677V51.2685H19.575V56.1466ZM52.0156 62.8611C52.0156 64.0685 51.536 65.2263 50.6823 66.08C49.8286 66.9337 48.6708 67.4133 47.4634 67.4133C46.2561 67.4133 45.0983 66.9337 44.2446 66.08C43.3909 65.2263 42.9113 64.0685 42.9113 62.8611V60.6736H44.9533C44.7884 61.1057 44.7309 61.5714 44.786 62.0307C44.841 62.4899 45.0068 62.9288 45.2691 63.3097C45.5315 63.6906 45.8824 64.0021 46.2918 64.2172C46.7012 64.4324 47.1568 64.5448 47.6193 64.5448C48.0818 64.5448 48.5374 64.4324 48.9468 64.2172C49.3562 64.0021 49.7071 63.6906 49.9695 63.3097C50.2318 62.9288 50.3976 62.4899 50.4526 62.0307C50.5076 61.5714 50.4502 61.1057 50.2853 60.6736H52.0156V62.8611ZM48.0934 62.1655C47.9998 62.2591 47.8805 62.3227 47.7507 62.3485C47.6209 62.3743 47.4863 62.361 47.3641 62.3103C47.2418 62.2596 47.1373 62.1738 47.0638 62.0637C46.9903 61.9537 46.951 61.8243 46.951 61.6919C46.951 61.5596 46.9903 61.4302 47.0638 61.3201C47.1373 61.2101 47.2418 61.1243 47.3641 61.0736C47.4863 61.0229 47.6209 61.0096 47.7507 61.0354C47.8805 61.0611 47.9998 61.1248 48.0934 61.2183C48.2178 61.3449 48.2871 61.5154 48.2862 61.6928C48.2854 61.8702 48.2146 62.0401 48.0891 62.1655H48.0934ZM42.9025 28.5404V25.2952H52.0058V30.9313H42.9025V28.5404ZM35.5831 12.5454C35.5847 10.7555 35.9905 8.98917 36.7705 7.37819C37.5504 5.76722 38.6842 4.35326 40.0872 3.24193V12.5454C40.0872 12.7431 40.1408 12.9371 40.2423 13.1068C40.3438 13.2764 40.4894 13.4154 40.6636 13.509L46.9352 16.881C47.0944 16.9666 47.2723 17.0114 47.4531 17.0114C47.6338 17.0114 47.8117 16.9666 47.9709 16.881L54.2447 13.509C54.4187 13.4153 54.5641 13.2762 54.6654 13.1066C54.7667 12.9369 54.8201 12.743 54.82 12.5454V3.24302C56.3818 4.47617 57.6076 6.08308 58.3841 7.91525C59.1606 9.74743 59.4628 11.7458 59.2628 13.7256C59.0628 15.7055 58.3669 17.603 57.2396 19.2428C56.1123 20.8826 54.5899 22.2119 52.813 23.1077H42.0942C40.1331 22.128 38.4845 20.6202 37.3341 18.754C36.1837 16.8879 35.5773 14.7376 35.5831 12.5454ZM26.3322 34.8163C26.5073 34.8163 26.6799 34.7743 26.8354 34.6938C26.9909 34.6133 27.1247 34.4967 27.2258 34.3536L30.2642 30.0541C30.7995 29.2975 31.5084 28.6802 32.3315 28.2541C33.1546 27.828 34.0679 27.6055 34.9947 27.6052H40.715V30.9313H36.1727V33.1188H54.4383C54.8501 33.0874 55.2579 33.2187 55.574 33.4845C55.8902 33.7504 56.0895 34.1295 56.1292 34.5407V36.388C56.0911 36.8003 55.8925 37.1812 55.5761 37.4484C55.2598 37.7156 54.8512 37.8478 54.4383 37.8165H47.4536V40.004H55.9848C56.3966 39.9726 56.8042 40.1039 57.1202 40.3698C57.4361 40.6356 57.6352 41.0148 57.6747 41.4258V43.2732C57.6368 43.6854 57.4384 44.0662 57.1223 44.3335C56.8061 44.6007 56.3976 44.7329 55.9848 44.7016H47.4536V46.8891H55.9848C56.3976 46.8578 56.8061 46.99 57.1223 47.2573C57.4384 47.5245 57.6368 47.9053 57.6747 48.3176V50.1638C57.6368 50.576 57.4384 50.9568 57.1223 51.2241C56.8061 51.4913 56.3976 51.6235 55.9848 51.5922H47.4536V53.7797H54.4383C54.8501 53.7483 55.2579 53.8797 55.574 54.1455C55.8902 54.4113 56.0895 54.7905 56.1292 55.2016V57.049C56.0898 57.4602 55.8905 57.8395 55.5743 58.1054C55.2581 58.3713 54.8502 58.5025 54.4383 58.4708H34.5944C33.1673 58.4718 31.7902 57.9451 30.728 56.9921L27.0617 53.7108C26.8612 53.5312 26.6014 53.4319 26.3322 53.4319H21.7625V34.8163H26.3322ZM19.575 32.1202V49.081H11.677V32.1202H19.575Z" fill="#001645"/>
<path d="M15.6266 52.4651C15.3777 52.4649 15.1344 52.5385 14.9275 52.6765C14.7205 52.8146 14.5591 53.011 14.4637 53.2408C14.3683 53.4706 14.3433 53.7236 14.3917 53.9676C14.4401 54.2117 14.5598 54.4359 14.7357 54.6119C14.9115 54.7879 15.1356 54.9078 15.3797 54.9565C15.6237 55.0051 15.8767 54.9802 16.1065 54.8851C16.3364 54.7899 16.533 54.6287 16.6712 54.4218C16.8095 54.215 16.8833 53.9717 16.8833 53.7229C16.8833 53.3895 16.7509 53.0697 16.5153 52.8339C16.2796 52.598 15.96 52.4654 15.6266 52.4651Z" fill="#001645"/>
</svg>
