<svg width="71" height="70" viewBox="0 0 71 70" fill="none" xmlns="http://www.w3.org/2000/svg">
<path d="M47.9449 21.2119C47.1888 21.2119 46.5751 21.823 46.5751 22.5787C46.5751 23.3338 47.1888 23.9459 47.9449 23.9459C48.7026 23.9459 49.3148 23.3338 49.3148 22.5787C49.315 22.3991 49.2796 22.2213 49.2108 22.0554C49.1421 21.8894 49.0412 21.7387 48.9139 21.6117C48.7867 21.4848 48.6356 21.3841 48.4693 21.3155C48.303 21.2469 48.1249 21.2117 47.9449 21.2119ZM23.0552 46.0526C22.2974 46.0526 21.6853 46.6651 21.6853 47.4198C21.6852 47.5994 21.7205 47.7773 21.7893 47.9432C21.858 48.1092 21.9589 48.26 22.0862 48.387C22.2134 48.5139 22.3645 48.6146 22.5308 48.6833C22.6971 48.7519 22.8753 48.7872 23.0552 48.787C23.8114 48.787 24.4251 48.176 24.4251 47.4198C24.4251 46.6651 23.8114 46.0526 23.0552 46.0526Z" fill="#001645"/>
<path d="M68.8653 8.41112C68.6379 8.35826 68.4006 8.36437 68.1762 8.42886C67.9518 8.49336 67.7476 8.61409 67.5832 8.77958L61.9041 14.4924H59.1815L56.1844 11.3932V8.63807L61.7822 2.96794C61.9452 2.80282 62.0634 2.59902 62.1258 2.37573C62.1881 2.15244 62.1925 1.91698 62.1385 1.69153C62.0847 1.46612 61.9744 1.25807 61.8179 1.08692C61.6614 0.915774 61.4638 0.787161 61.2438 0.713173C59.8375 0.239989 58.366 0.00018455 56.8693 0.00018455C52.4077 0.00018455 48.3542 2.07667 45.7484 5.69698C43.3093 9.0861 42.5575 13.2395 43.6347 17.2144L33.5442 27.2851L16.7334 10.4687V7.16835C16.7335 6.93225 16.6722 6.70017 16.5557 6.49471C16.4391 6.28926 16.2712 6.11744 16.0684 5.99599L6.38246 0.195009C6.12055 0.0380033 5.81354 -0.0270333 5.51031 0.0102545C5.20708 0.0475422 4.92507 0.18501 4.70918 0.400771L0.835068 4.26677C0.619159 4.48252 0.48163 4.76405 0.444305 5.0667C0.40698 5.36935 0.471998 5.67577 0.62904 5.93733L6.44014 15.6043C6.56178 15.8067 6.73384 15.9741 6.93956 16.0905C7.14528 16.2068 7.37767 16.268 7.61411 16.2681L10.9201 16.2692L27.7325 33.0856L17.6805 43.1179C13.6978 42.0433 9.53411 42.7948 6.13671 45.2306C2.51164 47.8299 0.432602 51.8743 0.432602 56.3272C0.432602 57.8205 0.672876 59.2896 1.14699 60.6926C1.22155 60.9136 1.35148 61.1118 1.52441 61.2684C1.69735 61.4251 1.90755 61.5351 2.13505 61.5878C2.36255 61.6406 2.59979 61.6344 2.82423 61.5699C3.04867 61.5054 3.25286 61.3847 3.4174 61.2193L9.09589 55.5069H11.8336L14.9527 58.62V61.3522L9.22904 67.0197C9.06327 67.1839 8.94232 67.3877 8.87768 67.6117C8.81304 67.8357 8.80685 68.0725 8.85971 68.2995C8.91257 68.5266 9.02272 68.7364 9.17969 68.909C9.33666 69.0816 9.53525 69.2113 9.75657 69.2857C11.1623 69.7589 12.6344 69.9987 14.1305 69.9987C18.5922 69.9987 22.6441 67.9233 25.2489 64.3052C27.6896 60.9144 28.4425 56.7594 27.3658 52.7844L35.4389 44.7272L37.2882 46.732L36.4396 47.5784C35.9044 48.1125 35.9044 48.9782 36.4396 49.5123C36.9747 50.0458 37.8415 50.0458 38.3771 49.5123L39.1456 48.7453L56.497 67.5558C56.5097 67.5697 56.523 67.5831 56.5366 67.5964C59.7471 70.8007 64.9489 70.8018 68.1611 67.5958C71.3642 64.3975 71.3642 59.1931 68.1611 55.9946C68.1471 55.9806 68.1327 55.9672 68.1182 55.954L49.2415 38.6697L50.0014 37.9113C50.5364 37.3779 50.5364 36.5122 50.0014 35.9781C49.4663 35.4441 48.5993 35.444 48.0637 35.9781L47.221 36.8198L45.2084 34.9761L53.3205 26.8798C54.4781 27.1882 55.6712 27.3441 56.8693 27.3434C64.4227 27.3434 70.5674 21.2102 70.5674 13.6721C70.5674 12.1783 70.3271 10.7096 69.8531 9.30608C69.7787 9.08519 69.6488 8.88698 69.4759 8.73033C69.303 8.57368 69.0928 8.46379 68.8653 8.41112ZM12.4579 13.9365C12.2011 13.6794 11.8527 13.5487 11.4889 13.5487L8.39068 13.5476L3.52877 5.44597L5.89014 3.08921L13.9937 7.94272V11.0348C13.9937 11.3968 14.1377 11.744 14.394 12.0003L31.6071 29.2189L29.6696 31.1521L12.4579 13.9365ZM47.3022 40.6051L66.2433 57.9476C68.359 60.0818 68.3526 63.5371 66.2234 65.6631C64.0895 67.7929 60.6349 67.7993 58.4923 65.6818L41.0844 46.81L47.3022 40.6051ZM45.2816 38.7546L39.2271 44.7964L37.3778 42.7915L43.2693 36.9111L45.2816 38.7546ZM56.8693 24.609C55.679 24.6103 54.4964 24.4178 53.3682 24.0392C53.1264 23.9582 52.8668 23.9461 52.6185 24.0042C52.3702 24.0623 52.143 24.1883 51.9625 24.3681C45.0949 31.2222 30.2973 45.9906 24.8482 51.4294C24.6677 51.6095 24.5412 51.8363 24.483 52.0843C24.4247 52.3323 24.4371 52.5916 24.5186 52.833C25.6574 56.2076 25.1126 59.8071 23.0236 62.7098C20.9404 65.6039 17.6988 67.2642 14.1307 67.2642C13.7299 67.2642 13.3312 67.2423 12.9363 67.2002L17.2873 62.8914C17.4156 62.7643 17.5175 62.6131 17.587 62.4466C17.6565 62.28 17.6923 62.1014 17.6923 61.9209V58.0533C17.6923 57.6907 17.5479 57.343 17.291 57.0867L13.3693 53.1726C13.1125 52.9162 12.7641 52.7721 12.4008 52.772H8.52548C8.34464 52.772 8.1656 52.8078 7.99866 52.8772C7.83171 52.9465 7.68017 53.0482 7.55274 53.1763L3.23603 57.5187C3.19313 57.1228 3.17168 56.7249 3.17178 56.3267C3.17178 52.7651 4.83479 49.5304 7.7352 47.4512C10.6429 45.3662 14.25 44.8221 17.6319 45.959C17.8736 46.0403 18.1333 46.0526 18.3817 45.9945C18.6301 45.9364 18.8572 45.8102 19.0375 45.6301C19.113 45.5553 46.1325 18.5881 46.1518 18.5688C46.3321 18.3888 46.4586 18.1621 46.5168 17.9142C46.575 17.6663 46.5628 17.4072 46.4814 17.1659C45.3422 13.7911 45.8859 10.1927 47.9731 7.29208C50.0582 4.39556 53.3004 2.73456 56.8689 2.73456C57.2821 2.73456 57.6925 2.75753 58.099 2.80237L53.8388 7.11804C53.5863 7.3737 53.4448 7.71827 53.4448 8.07726V11.945C53.4447 12.2992 53.5824 12.6397 53.829 12.8944L57.6138 16.8087C57.7416 16.9408 57.8947 17.0459 58.064 17.1176C58.2334 17.1893 58.4155 17.2263 58.5995 17.2262H62.4748C62.6556 17.2262 62.8345 17.1905 63.0014 17.1211C63.1683 17.0517 63.3197 16.95 63.447 16.8219L67.7637 12.48C67.8064 12.8742 67.8278 13.272 67.8278 13.6721C67.8278 19.7027 62.9119 24.609 56.8695 24.609H56.8693Z" fill="#001645"/>
<path d="M43.1022 25.4783L25.9603 42.5869C25.4256 43.1205 25.4256 43.9862 25.9603 44.5201C26.4953 45.0542 27.3627 45.0542 27.8978 44.5201L45.0399 27.4117C45.5749 26.8782 45.5749 26.0125 45.0399 25.4784C44.5048 24.9444 43.6374 24.9443 43.1022 25.4784V25.4783ZM60.4127 61.797C60.9479 62.3295 61.8153 62.3295 62.3504 61.7938C62.8844 61.2593 62.8829 60.3934 62.3473 59.8605L49.9997 47.5766C49.4641 47.0436 48.5962 47.0453 48.0627 47.5799C47.5281 48.115 47.5297 48.9801 48.0653 49.5131L60.4127 61.797Z" fill="#001645"/>
</svg>
